<svg width="41" height="41" viewBox="0 0 41 41" fill="none" xmlns="http://www.w3.org/2000/svg">
<g clip-path="url(#clip0_320_683)">
<path d="M29.9992 26.613C35.0696 24.0111 38.9133 22.0285 39.2446 21.8743C40.3044 21.3476 41.399 19.9534 39.2446 18.8705C38.549 18.5299 34.804 16.6091 29.9992 14.1318L23.3384 20.4187L29.9992 26.6129V26.613Z" fill="#FFD900"/>
<path d="M23.3383 20.4189L2.12939 40.396C2.62722 40.4576 3.18924 40.3343 3.85185 39.9938C5.243 39.2822 19.9905 31.7553 29.9991 26.6147L23.3383 20.4189Z" fill="#F43249"/>
<path d="M23.3385 20.4188L29.9993 14.1629C29.9993 14.1629 5.34384 1.58757 3.8521 0.845236C3.29008 0.534141 2.66026 0.441733 2.09668 0.534141L23.3385 20.4188Z" fill="#00EE76"/>
<path d="M23.3383 20.4189L2.09648 0.53418C1.23439 0.720457 0.505859 1.43228 0.505859 2.88805V38.0421C0.505859 39.3745 1.0696 40.3342 2.12944 40.4267L23.3383 20.4189Z" fill="#00D3FF"/>
</g>
<defs>
<clipPath id="clip0_320_683">
<rect width="40" height="40" fill="white" transform="translate(0.5 0.5)"/>
</clipPath>
</defs>
</svg>
