<svg width="1098" height="795" viewBox="0 0 1098 795" fill="none" xmlns="http://www.w3.org/2000/svg">
<path fill-rule="evenodd" clip-rule="evenodd" d="M39.8877 0C19.0599 0 2.17569 16.8842 2.17569 37.7119V89.2032H1.45046C0.649394 89.2032 0 89.8526 0 90.6537V174.78C0 175.581 0.649394 176.231 1.45046 176.231H2.17569V757.14C2.17569 777.967 19.06 794.852 39.8877 794.852H1058.11C1078.94 794.852 1095.82 777.967 1095.82 757.14V158.1H1096.55C1097.35 158.1 1098 157.451 1098 156.65V105.884C1098 105.082 1097.35 104.433 1096.55 104.433H1095.82V37.7119C1095.82 16.8842 1078.94 0 1058.11 0H39.8877ZM1071.17 50.0408H26.8336V746.261H1071.17V50.0408Z" fill="#1E1E1F"/>
<path d="M556.252 26.8337C556.252 30.4385 553.33 33.3608 549.725 33.3608C546.12 33.3608 543.198 30.4385 543.198 26.8337C543.198 23.2289 546.12 20.3066 549.725 20.3066C553.33 20.3066 556.252 23.2289 556.252 26.8337Z" fill="#444445"/>
<path d="M473.576 26.8337C473.576 28.0353 472.602 29.0094 471.4 29.0094C470.199 29.0094 469.225 28.0353 469.225 26.8337C469.225 25.6321 470.199 24.658 471.4 24.658C472.602 24.658 473.576 25.6321 473.576 26.8337Z" fill="#444445"/>
<path d="M630.226 26.8337C630.226 28.0353 629.252 29.0094 628.05 29.0094C626.848 29.0094 625.874 28.0353 625.874 26.8337C625.874 25.6321 626.848 24.658 628.05 24.658C629.252 24.658 630.226 25.6321 630.226 26.8337Z" fill="#444445"/>
<rect width="1044.33" height="696.22" transform="translate(27 49)" fill="#19303C"/>
<g filter="url(#filter0_d_1215_1008)">
<path d="M469.88 423C469.144 423 468.264 422.728 467.24 422.184C466.248 421.64 465.368 421 464.6 420.264C463.864 419.528 463.496 418.92 463.496 418.44C463.496 417.608 464.28 413.368 465.848 405.72C466.04 404.824 466.344 403.304 466.76 401.16C467.208 398.984 467.512 397.416 467.672 396.456L465.896 396.744C464.904 395.816 464.408 394.648 464.408 393.24C464.408 392.248 464.68 391.224 465.224 390.168C467.816 389.496 470.44 389.16 473.096 389.16C475.912 389.16 478.52 389.528 480.92 390.264C483.352 391 485.32 392.136 486.824 393.672C488.328 395.176 489.08 397.064 489.08 399.336C489.08 401.352 488.408 403.272 487.064 405.096C485.752 406.888 483.832 408.376 481.304 409.56C478.776 410.744 475.8 411.464 472.376 411.72C472.152 413.256 471.976 414.648 471.848 415.896C471.56 418.328 471.288 420.12 471.032 421.272C470.776 422.424 470.392 423 469.88 423ZM473.096 405.768C475.88 405.224 478.024 404.392 479.528 403.272C481.064 402.12 481.832 400.84 481.832 399.432C481.832 398.472 481.352 397.672 480.392 397.032C479.464 396.36 478.2 396.024 476.6 396.024C476.024 396.024 475.4 396.072 474.728 396.168L473.96 400.68C473.512 403.208 473.224 404.904 473.096 405.768ZM496.762 423C495.834 423 494.794 422.728 493.641 422.184C492.521 421.608 491.561 420.952 490.761 420.216C489.961 419.448 489.561 418.792 489.561 418.248C489.561 417.704 489.785 416.36 490.233 414.216C490.681 412.072 490.969 410.696 491.097 410.088C492.057 405.672 492.697 402.616 493.018 400.92L493.497 398.232C494.17 394.52 494.778 391.528 495.322 389.256C495.898 386.984 496.474 385.848 497.049 385.848C497.721 385.848 498.602 386.136 499.69 386.712C500.81 387.288 501.786 387.96 502.617 388.728C503.45 389.496 503.866 390.168 503.866 390.744C503.866 391.512 503.722 392.264 503.434 393C503.178 393.704 502.778 394.632 502.234 395.784C501.722 396.776 501.37 397.544 501.177 398.088C500.569 399.976 499.914 402.6 499.21 405.96C498.538 409.32 497.978 412.568 497.53 415.704C498.554 415.192 499.354 414.76 499.93 414.408C500.506 414.024 501.178 413.512 501.945 412.872C503.353 413.352 504.394 414.024 505.066 414.888C505.77 415.72 506.122 416.68 506.122 417.768C506.122 418.536 505.578 419.336 504.49 420.168C503.402 420.968 502.106 421.64 500.602 422.184C499.098 422.728 497.818 423 496.762 423ZM530.83 415.944C532.782 414.984 534.43 413.96 535.774 412.872C537.182 413.352 538.222 414.024 538.894 414.888C539.598 415.72 539.95 416.68 539.95 417.768C539.95 418.536 539.406 419.336 538.318 420.168C537.23 420.968 535.934 421.64 534.43 422.184C532.926 422.728 531.646 423 530.59 423C529.854 423 529.006 422.728 528.046 422.184C527.118 421.64 526.302 421 525.598 420.264C524.926 419.528 524.59 418.952 524.59 418.536C524.59 418.216 524.718 417.784 524.974 417.24C525.262 416.696 525.566 416.136 525.886 415.56C526.206 414.984 526.414 414.6 526.51 414.408L525.31 413.736C523.614 416.52 521.982 418.76 520.414 420.456C518.878 422.152 517.358 423 515.854 423C514.83 423 513.742 422.552 512.59 421.656C511.47 420.76 510.51 419.672 509.71 418.392C508.942 417.112 508.558 415.976 508.558 414.984C508.558 412.136 509.15 409.224 510.334 406.248C511.518 403.272 513.166 400.808 515.278 398.856C517.422 396.904 519.838 395.928 522.526 395.928C523.486 395.928 524.462 396.36 525.454 397.224C526.446 398.088 527.086 398.968 527.374 399.864C527.534 399.16 527.758 398.552 528.046 398.04C528.366 397.496 528.702 397.224 529.054 397.224C529.886 397.224 530.798 397.528 531.79 398.136C532.814 398.712 533.678 399.4 534.382 400.2C535.086 400.968 535.438 401.576 535.438 402.024C535.406 402.632 535.15 403.64 534.67 405.048C534.222 406.456 533.486 408.6 532.462 411.48C531.854 413.048 531.31 414.536 530.83 415.944ZM516.094 416.328C518.686 414.728 520.942 412.76 522.862 410.424C524.782 408.056 526.094 405.448 526.798 402.6C525.934 402.216 525.118 402.024 524.35 402.024C522.846 402.024 521.502 402.696 520.318 404.04C519.134 405.384 518.19 407.144 517.486 409.32C516.782 411.496 516.318 413.832 516.094 416.328ZM550.232 416.664C553.24 416.536 556.024 414.984 558.584 412.008C560.152 412.296 561.4 412.888 562.328 413.784C563.288 414.68 563.768 415.816 563.768 417.192C563.768 418.184 563.192 419.128 562.04 420.024C560.92 420.92 559.512 421.64 557.816 422.184C556.12 422.728 554.488 423 552.92 423C551.384 423 549.784 422.504 548.12 421.512C546.456 420.488 545.08 419.24 543.992 417.768C542.904 416.296 542.36 414.904 542.36 413.592C542.36 411.064 542.936 408.424 544.088 405.672C545.272 402.888 546.904 400.568 548.984 398.712C551.064 396.856 553.4 395.928 555.992 395.928C557.592 395.928 559.112 396.216 560.552 396.792C561.992 397.368 563.144 398.136 564.008 399.096C564.872 400.056 565.304 401.048 565.304 402.072C565.304 403.064 564.872 403.96 564.008 404.76C563.144 405.528 562.008 405.912 560.6 405.912C560.152 405.912 559.688 405.864 559.208 405.768C558.408 403.816 557.528 402.44 556.568 401.64C554.456 403.016 552.856 404.936 551.768 407.4C550.68 409.864 550.136 412.376 550.136 414.936C550.136 415.32 550.168 415.896 550.232 416.664ZM577.334 394.536C576.726 394.536 575.99 394.296 575.126 393.816C574.294 393.304 573.574 392.712 572.966 392.04C572.358 391.336 572.054 390.712 572.054 390.168C572.054 389.304 572.278 388.44 572.726 387.576C573.174 386.712 573.734 386.088 574.406 385.704C574.726 385.544 575.238 385.464 575.942 385.464C577.094 385.464 578.246 385.72 579.398 386.232C580.582 386.744 581.302 387.384 581.558 388.152C581.622 388.312 581.654 388.552 581.654 388.872C581.654 389.608 581.43 390.424 580.982 391.32C580.534 392.216 579.974 392.984 579.302 393.624C578.63 394.232 577.974 394.536 577.334 394.536ZM574.07 423C573.238 423 572.294 422.728 571.238 422.184C570.214 421.608 569.318 420.952 568.55 420.216C567.814 419.448 567.446 418.808 567.446 418.296C567.446 417.72 567.654 416.872 568.07 415.752C568.486 414.632 569.11 413.096 569.942 411.144C570.582 409.64 571.062 408.472 571.382 407.64C571.702 406.776 571.862 406.168 571.862 405.816C571.862 405.56 571.702 405.288 571.382 405C571.094 404.68 570.646 404.296 570.038 403.848C569.334 403.304 568.806 402.872 568.454 402.552C568.134 402.232 567.974 401.896 567.974 401.544C567.974 400.872 568.278 400.088 568.886 399.192C569.526 398.296 570.262 397.528 571.094 396.888C571.958 396.248 572.694 395.928 573.302 395.928C574.038 395.928 574.838 396.248 575.702 396.888C576.598 397.528 577.35 398.296 577.958 399.192C578.598 400.056 578.918 400.76 578.918 401.304C578.918 402.712 578.55 404.728 577.814 407.352C577.11 409.944 576.198 412.744 575.078 415.752C575.846 415.4 576.518 415.032 577.094 414.648C577.67 414.264 578.47 413.672 579.494 412.872C580.934 413.352 581.99 414.04 582.662 414.936C583.334 415.8 583.67 416.744 583.67 417.768C583.67 418.6 583.126 419.416 582.038 420.216C580.982 421.016 579.686 421.688 578.15 422.232C576.614 422.744 575.254 423 574.07 423ZM596.762 395.88C599.034 396.136 601.098 396.824 602.954 397.944C604.842 399.032 606.314 400.344 607.37 401.88C608.426 403.416 608.954 404.952 608.954 406.488C608.954 408.792 608.362 411.24 607.178 413.832C605.994 416.424 604.346 418.6 602.234 420.36C600.122 422.12 597.77 423 595.178 423C593.898 423 592.538 422.536 591.098 421.608C589.658 420.648 588.442 419.496 587.45 418.152C586.49 416.776 586.01 415.56 586.01 414.504C586.01 412.552 586.25 410.552 586.73 408.504C587.21 406.424 587.946 404.408 588.938 402.456C589.866 401.944 590.794 401.688 591.722 401.688C592.138 401.688 592.522 401.736 592.874 401.832C592.746 401.448 592.682 401 592.682 400.488C592.682 399.464 593.034 398.536 593.738 397.704C594.474 396.872 595.482 396.264 596.762 395.88ZM593.45 417.528C596.106 416.632 598.17 415.096 599.642 412.92C601.114 410.744 602.09 408.152 602.57 405.144C601.13 404.12 599.178 403.608 596.714 403.608C596.106 403.608 595.642 403.624 595.322 403.656C595.674 404.296 595.85 405.016 595.85 405.816C595.018 407.128 594.378 408.584 593.93 410.184C593.482 411.752 593.258 413.336 593.258 414.936C593.258 415.896 593.322 416.76 593.45 417.528Z" fill="white"/>
<path d="M467.24 422.184L466.759 423.061L466.771 423.067L467.24 422.184ZM464.6 420.264L463.893 420.971L463.9 420.979L463.908 420.986L464.6 420.264ZM465.848 405.72L464.87 405.51L464.868 405.519L465.848 405.72ZM466.76 401.16L465.78 400.958L465.778 400.97L466.76 401.16ZM467.672 396.456L468.658 396.62L468.887 395.246L467.512 395.469L467.672 396.456ZM465.896 396.744L465.213 397.474L465.571 397.81L466.056 397.731L465.896 396.744ZM465.224 390.168L464.973 389.2L464.54 389.312L464.335 389.71L465.224 390.168ZM480.92 390.264L480.627 391.22L480.63 391.221L480.92 390.264ZM486.824 393.672L486.109 394.372L486.117 394.379L486.824 393.672ZM487.064 405.096L486.259 404.503L486.257 404.505L487.064 405.096ZM481.304 409.56L481.728 410.466L481.304 409.56ZM472.376 411.72L472.301 410.723L471.502 410.783L471.386 411.576L472.376 411.72ZM471.848 415.896L472.841 416.014L472.842 416.006L472.843 415.998L471.848 415.896ZM473.096 405.768L472.107 405.621L471.899 407.021L473.288 406.749L473.096 405.768ZM479.528 403.272L480.125 404.074L480.128 404.072L479.528 403.272ZM480.392 397.032L479.805 397.842L479.821 397.853L479.837 397.864L480.392 397.032ZM474.728 396.168L474.587 395.178L473.865 395.281L473.742 396L474.728 396.168ZM473.96 400.68L474.945 400.854L474.946 400.848L473.96 400.68ZM469.88 422C469.375 422 468.664 421.808 467.709 421.301L466.771 423.067C467.864 423.648 468.913 424 469.88 424V422ZM467.721 421.307C466.801 420.803 465.993 420.214 465.292 419.542L463.908 420.986C464.743 421.786 465.695 422.477 466.759 423.061L467.721 421.307ZM465.307 419.557C464.972 419.222 464.755 418.95 464.628 418.738C464.496 418.52 464.496 418.43 464.496 418.44H462.496C462.496 418.93 462.68 419.384 462.916 419.774C463.157 420.17 463.492 420.57 463.893 420.971L465.307 419.557ZM464.496 418.44C464.496 418.322 464.531 417.978 464.631 417.33C464.727 416.71 464.872 415.874 465.067 414.818C465.458 412.707 466.044 409.743 466.828 405.921L464.868 405.519C464.084 409.345 463.494 412.325 463.101 414.454C462.904 415.518 462.755 416.376 462.655 417.024C462.559 417.644 462.496 418.142 462.496 418.44H464.496ZM466.826 405.93C467.02 405.023 467.326 403.495 467.742 401.35L465.778 400.97C465.362 403.113 465.06 404.625 464.87 405.51L466.826 405.93ZM467.739 401.362C468.188 399.185 468.495 397.601 468.658 396.62L466.686 396.292C466.529 397.231 466.228 398.783 465.781 400.958L467.739 401.362ZM467.512 395.469L465.736 395.757L466.056 397.731L467.832 397.443L467.512 395.469ZM466.579 396.014C465.797 395.282 465.408 394.383 465.408 393.24H463.408C463.408 394.913 464.011 396.35 465.213 397.474L466.579 396.014ZM465.408 393.24C465.408 392.436 465.628 391.568 466.113 390.626L464.335 389.71C463.732 390.88 463.408 392.06 463.408 393.24H465.408ZM465.475 391.136C467.986 390.485 470.525 390.16 473.096 390.16V388.16C470.355 388.16 467.646 388.507 464.973 389.2L465.475 391.136ZM473.096 390.16C475.825 390.16 478.333 390.516 480.627 391.22L481.213 389.308C478.707 388.54 475.999 388.16 473.096 388.16V390.16ZM480.63 391.221C482.931 391.917 484.743 392.976 486.109 394.372L487.539 392.972C485.897 391.296 483.773 390.083 481.21 389.307L480.63 391.221ZM486.117 394.379C487.42 395.682 488.08 397.309 488.08 399.336H490.08C490.08 396.819 489.236 394.67 487.531 392.965L486.117 394.379ZM488.08 399.336C488.08 401.112 487.493 402.828 486.259 404.503L487.869 405.689C489.323 403.716 490.08 401.592 490.08 399.336H488.08ZM486.257 404.505C485.067 406.131 483.294 407.524 480.88 408.654L481.728 410.466C484.37 409.228 486.437 407.645 487.871 405.687L486.257 404.505ZM480.88 408.654C478.484 409.777 475.631 410.474 472.301 410.723L472.451 412.717C475.969 412.454 479.068 411.711 481.728 410.466L480.88 408.654ZM471.386 411.576C471.161 413.123 470.983 414.529 470.853 415.794L472.843 415.998C472.969 414.767 473.143 413.389 473.366 411.864L471.386 411.576ZM470.855 415.778C470.568 418.204 470.3 419.955 470.056 421.055L472.008 421.489C472.276 420.285 472.552 418.452 472.841 416.014L470.855 415.778ZM470.056 421.055C469.938 421.583 469.812 421.876 469.72 422.013C469.678 422.076 469.666 422.072 469.699 422.051C469.742 422.024 469.808 422 469.88 422V424C470.582 424 471.079 423.581 471.384 423.123C471.676 422.684 471.87 422.113 472.008 421.489L470.056 421.055ZM473.288 406.749C476.15 406.19 478.456 405.317 480.125 404.074L478.931 402.47C477.592 403.467 475.61 404.258 472.904 404.787L473.288 406.749ZM480.128 404.072C481.817 402.805 482.832 401.26 482.832 399.432H480.832C480.832 400.42 480.311 401.435 478.928 402.472L480.128 404.072ZM482.832 399.432C482.832 398.067 482.12 396.982 480.947 396.2L479.837 397.864C480.584 398.362 480.832 398.877 480.832 399.432H482.832ZM480.979 396.222C479.824 395.386 478.329 395.024 476.6 395.024V397.024C478.071 397.024 479.104 397.334 479.805 397.842L480.979 396.222ZM476.6 395.024C475.969 395.024 475.297 395.077 474.587 395.178L474.869 397.158C475.503 397.067 476.079 397.024 476.6 397.024V395.024ZM473.742 396L472.974 400.512L474.946 400.848L475.714 396.336L473.742 396ZM472.975 400.506C472.528 403.031 472.237 404.741 472.107 405.621L474.085 405.915C474.211 405.067 474.496 403.385 474.945 400.854L472.975 400.506ZM493.641 422.184L493.184 423.073L493.199 423.081L493.214 423.088L493.641 422.184ZM490.761 420.216L490.069 420.937L490.077 420.945L490.084 420.952L490.761 420.216ZM490.233 414.216L489.255 414.011L489.255 414.011L490.233 414.216ZM491.097 410.088L490.12 409.876L490.119 409.882L491.097 410.088ZM493.018 400.92L494 401.105L494.002 401.096L493.018 400.92ZM493.497 398.232L492.513 398.054L492.513 398.056L493.497 398.232ZM495.322 389.256L494.352 389.01L494.349 389.023L495.322 389.256ZM499.69 386.712L499.222 387.596L499.232 387.601L499.69 386.712ZM502.617 388.728L501.939 389.463L501.939 389.463L502.617 388.728ZM503.434 393L502.502 392.636L502.498 392.647L502.494 392.658L503.434 393ZM502.234 395.784L503.122 396.243L503.13 396.227L503.138 396.211L502.234 395.784ZM501.177 398.088L500.235 397.755L500.23 397.768L500.226 397.781L501.177 398.088ZM499.21 405.96L498.231 405.755L498.229 405.764L499.21 405.96ZM497.53 415.704L496.54 415.563L496.27 417.452L497.977 416.598L497.53 415.704ZM499.93 414.408L500.451 415.261L500.468 415.251L500.484 415.24L499.93 414.408ZM501.945 412.872L502.268 411.925L501.737 411.744L501.305 412.104L501.945 412.872ZM505.066 414.888L504.276 415.502L504.289 415.518L504.302 415.534L505.066 414.888ZM504.49 420.168L505.082 420.974L505.089 420.968L505.097 420.962L504.49 420.168ZM500.602 422.184L500.261 421.244L500.261 421.244L500.602 422.184ZM496.762 422C496.025 422 495.134 421.783 494.069 421.28L493.214 423.088C494.453 423.673 495.642 424 496.762 424V422ZM494.099 421.295C493.046 420.753 492.163 420.147 491.439 419.48L490.084 420.952C490.96 421.757 491.997 422.463 493.184 423.073L494.099 421.295ZM491.454 419.495C490.674 418.746 490.561 418.346 490.561 418.248H488.561C488.561 419.238 489.249 420.15 490.069 420.937L491.454 419.495ZM490.561 418.248C490.561 418.068 490.603 417.671 490.716 416.996C490.825 416.343 490.99 415.486 491.212 414.421L489.255 414.011C489.029 415.09 488.858 415.977 488.743 416.668C488.632 417.337 488.561 417.884 488.561 418.248H490.561ZM491.212 414.421C491.66 412.276 491.948 410.901 492.076 410.294L490.119 409.882C489.991 410.491 489.703 411.868 489.255 414.011L491.212 414.421ZM492.075 410.3C493.034 405.885 493.677 402.817 494 401.105L492.035 400.735C491.718 402.415 491.081 405.459 490.12 409.876L492.075 410.3ZM494.002 401.096L494.482 398.408L492.513 398.056L492.033 400.744L494.002 401.096ZM494.482 398.41C495.152 394.707 495.756 391.735 496.294 389.489L494.349 389.023C493.799 391.321 493.187 394.333 492.513 398.054L494.482 398.41ZM496.291 389.502C496.573 388.388 496.84 387.621 497.077 387.152C497.197 386.916 497.284 386.809 497.32 386.773C497.353 386.74 497.259 386.848 497.049 386.848V384.848C496.552 384.848 496.17 385.098 495.915 385.349C495.663 385.597 495.462 385.916 495.294 386.248C494.955 386.915 494.646 387.852 494.352 389.01L496.291 389.502ZM497.049 386.848C497.473 386.848 498.176 387.042 499.222 387.596L500.157 385.828C499.027 385.23 497.97 384.848 497.049 384.848V386.848ZM499.232 387.601C500.281 388.141 501.181 388.762 501.939 389.463L503.296 387.993C502.39 387.158 501.338 386.435 500.147 385.823L499.232 387.601ZM501.939 389.463C502.742 390.203 502.866 390.619 502.866 390.744H504.866C504.866 389.717 504.157 388.789 503.296 387.993L501.939 389.463ZM502.866 390.744C502.866 391.384 502.746 392.012 502.502 392.636L504.365 393.364C504.697 392.516 504.866 391.64 504.866 390.744H502.866ZM502.494 392.658C502.253 393.32 501.868 394.216 501.329 395.357L503.138 396.211C503.687 395.048 504.102 394.088 504.373 393.342L502.494 392.658ZM501.345 395.325C500.827 396.328 500.45 397.145 500.235 397.755L502.12 398.421C502.289 397.943 502.616 397.224 503.122 396.243L501.345 395.325ZM500.226 397.781C499.602 399.718 498.938 402.381 498.231 405.755L500.188 406.165C500.889 402.819 501.537 400.234 502.129 398.395L500.226 397.781ZM498.229 405.764C497.554 409.141 496.99 412.407 496.54 415.563L498.519 415.845C498.965 412.729 499.521 409.499 500.19 406.156L498.229 405.764ZM497.977 416.598C499.011 416.081 499.84 415.635 500.451 415.261L499.408 413.555C498.867 413.885 498.096 414.303 497.082 414.81L497.977 416.598ZM500.484 415.24C501.1 414.83 501.801 414.294 502.586 413.64L501.305 412.104C500.554 412.73 499.911 413.218 499.375 413.576L500.484 415.24ZM501.623 413.819C502.911 414.258 503.76 414.838 504.276 415.502L505.855 414.274C505.027 413.21 503.796 412.446 502.268 411.925L501.623 413.819ZM504.302 415.534C504.854 416.186 505.122 416.917 505.122 417.768H507.122C507.122 416.443 506.685 415.254 505.829 414.242L504.302 415.534ZM505.122 417.768C505.122 418.048 504.908 418.589 503.882 419.374L505.097 420.962C506.247 420.083 507.122 419.024 507.122 417.768H505.122ZM503.897 419.362C502.899 420.096 501.691 420.726 500.261 421.244L500.942 423.124C502.52 422.554 503.904 421.84 505.082 420.974L503.897 419.362ZM500.261 421.244C498.816 421.766 497.658 422 496.762 422V424C497.977 424 499.379 423.69 500.942 423.124L500.261 421.244ZM530.83 415.944L529.884 415.621L529.104 417.907L531.272 416.841L530.83 415.944ZM535.774 412.872L536.097 411.925L535.574 411.747L535.145 412.095L535.774 412.872ZM538.894 414.888L538.105 415.502L538.118 415.518L538.131 415.534L538.894 414.888ZM538.318 420.168L538.911 420.974L538.918 420.968L538.926 420.962L538.318 420.168ZM528.046 422.184L527.541 423.047L527.547 423.05L527.553 423.054L528.046 422.184ZM525.598 420.264L524.86 420.938L524.868 420.947L524.876 420.955L525.598 420.264ZM524.974 417.24L524.09 416.772L524.079 416.793L524.069 416.814L524.974 417.24ZM525.886 415.56L526.76 416.046L526.76 416.046L525.886 415.56ZM526.51 414.408L527.405 414.855L527.831 414.002L526.999 413.535L526.51 414.408ZM525.31 413.736L525.799 412.863L524.958 412.392L524.456 413.216L525.31 413.736ZM520.414 420.456L519.68 419.777L519.673 419.785L520.414 420.456ZM512.59 421.656L511.965 422.437L511.976 422.445L512.59 421.656ZM509.71 418.392L508.853 418.906L508.857 418.914L508.862 418.922L509.71 418.392ZM510.334 406.248L511.263 406.618L511.263 406.618L510.334 406.248ZM515.278 398.856L514.605 398.117L514.6 398.122L515.278 398.856ZM525.454 397.224L524.797 397.978L524.797 397.978L525.454 397.224ZM527.374 399.864L526.422 400.17L527.54 403.647L528.349 400.086L527.374 399.864ZM528.046 398.04L527.184 397.533L527.179 397.541L527.175 397.55L528.046 398.04ZM531.79 398.136L531.268 398.989L531.284 398.998L531.3 399.008L531.79 398.136ZM534.382 400.2L533.632 400.861L533.638 400.868L533.645 400.876L534.382 400.2ZM535.438 402.024L536.437 402.077L536.438 402.05V402.024H535.438ZM534.67 405.048L533.724 404.725L533.72 404.735L533.717 404.745L534.67 405.048ZM532.462 411.48L533.395 411.842L533.4 411.828L533.404 411.815L532.462 411.48ZM516.094 416.328L515.098 416.239L514.92 418.228L516.62 417.179L516.094 416.328ZM522.862 410.424L523.635 411.059L523.639 411.054L522.862 410.424ZM526.798 402.6L527.769 402.84L527.97 402.027L527.204 401.686L526.798 402.6ZM520.318 404.04L519.568 403.379L519.568 403.379L520.318 404.04ZM517.486 409.32L516.535 409.012L516.535 409.012L517.486 409.32ZM531.272 416.841C533.274 415.856 534.989 414.794 536.403 413.649L535.145 412.095C533.872 413.126 532.29 414.112 530.389 415.047L531.272 416.841ZM535.452 413.819C536.739 414.258 537.589 414.838 538.105 415.502L539.684 414.274C538.856 413.21 537.625 412.446 536.097 411.925L535.452 413.819ZM538.131 415.534C538.682 416.186 538.95 416.917 538.95 417.768H540.95C540.95 416.443 540.514 415.254 539.658 414.242L538.131 415.534ZM538.95 417.768C538.95 418.048 538.737 418.589 537.711 419.374L538.926 420.962C540.076 420.083 540.95 419.024 540.95 417.768H538.95ZM537.726 419.362C536.728 420.096 535.52 420.726 534.09 421.244L534.77 423.124C536.348 422.554 537.733 421.84 538.911 420.974L537.726 419.362ZM534.09 421.244C532.645 421.766 531.487 422 530.59 422V424C531.806 424 533.208 423.69 534.77 423.124L534.09 421.244ZM530.59 422C530.092 422 529.418 421.812 528.539 421.314L527.553 423.054C528.594 423.644 529.616 424 530.59 424V422ZM528.552 421.321C527.699 420.822 526.957 420.238 526.321 419.573L524.876 420.955C525.647 421.762 526.537 422.458 527.541 423.047L528.552 421.321ZM526.337 419.59C526.027 419.251 525.826 418.981 525.706 418.776C525.579 418.558 525.59 418.491 525.59 418.536H523.59C523.59 418.997 523.77 419.426 523.978 419.784C524.195 420.155 524.497 420.541 524.86 420.938L526.337 419.59ZM525.59 418.536C525.59 418.442 525.64 418.174 525.879 417.666L524.069 416.814C523.796 417.394 523.59 417.99 523.59 418.536H525.59ZM525.858 417.708C526.143 417.17 526.443 416.616 526.76 416.046L525.012 415.074C524.689 415.656 524.382 416.222 524.09 416.772L525.858 417.708ZM526.76 416.046C527.078 415.473 527.297 415.07 527.405 414.855L525.616 413.961C525.531 414.13 525.334 414.495 525.012 415.074L526.76 416.046ZM526.999 413.535L525.799 412.863L524.822 414.609L526.022 415.281L526.999 413.535ZM524.456 413.216C522.782 415.964 521.189 418.145 519.68 419.777L521.149 421.135C522.776 419.375 524.447 417.076 526.164 414.256L524.456 413.216ZM519.673 419.785C518.228 421.38 516.956 422 515.854 422V424C517.76 424 519.529 422.924 521.155 421.127L519.673 419.785ZM515.854 422C515.13 422 514.253 421.683 513.204 420.867L511.976 422.445C513.231 423.421 514.531 424 515.854 424V422ZM513.215 420.875C512.188 420.053 511.302 419.051 510.558 417.862L508.862 418.922C509.719 420.293 510.753 421.467 511.966 422.437L513.215 420.875ZM510.568 417.878C509.849 416.68 509.558 415.725 509.558 414.984H507.558C507.558 416.227 508.035 417.544 508.853 418.906L510.568 417.878ZM509.558 414.984C509.558 412.277 510.12 409.491 511.263 406.618L509.405 405.878C508.18 408.957 507.558 411.995 507.558 414.984H509.558ZM511.263 406.618C512.399 403.764 513.967 401.43 515.957 399.59L514.6 398.122C512.366 400.186 510.638 402.78 509.405 405.878L511.263 406.618ZM515.951 399.595C517.927 397.797 520.108 396.928 522.526 396.928V394.928C519.569 394.928 516.917 396.011 514.605 398.117L515.951 399.595ZM522.526 396.928C523.168 396.928 523.92 397.214 524.797 397.978L526.111 396.47C525.005 395.506 523.804 394.928 522.526 394.928V396.928ZM524.797 397.978C525.704 398.768 526.208 399.503 526.422 400.17L528.326 399.558C527.965 398.433 527.188 397.408 526.111 396.47L524.797 397.978ZM528.349 400.086C528.493 399.455 528.686 398.942 528.918 398.53L527.175 397.55C526.83 398.162 526.576 398.865 526.399 399.642L528.349 400.086ZM528.908 398.547C529.033 398.335 529.125 398.24 529.167 398.205C529.199 398.179 529.156 398.224 529.054 398.224V396.224C528.136 396.224 527.542 396.926 527.184 397.533L528.908 398.547ZM529.054 398.224C529.642 398.224 530.373 398.44 531.268 398.989L532.313 397.283C531.223 396.616 530.13 396.224 529.054 396.224V398.224ZM531.3 399.008C532.236 399.534 533.009 400.153 533.632 400.861L535.133 399.539C534.347 398.647 533.393 397.89 532.281 397.264L531.3 399.008ZM533.645 400.876C533.969 401.229 534.182 401.514 534.309 401.733C534.442 401.963 534.438 402.049 534.438 402.024H536.438C536.438 401.551 536.258 401.109 536.04 400.731C535.815 400.342 535.499 399.939 535.119 399.524L533.645 400.876ZM534.44 401.971C534.416 402.426 534.205 403.315 533.724 404.725L535.617 405.371C536.096 403.965 536.397 402.838 536.437 402.077L534.44 401.971ZM533.717 404.745C533.275 406.136 532.543 408.267 531.52 411.145L533.404 411.815C534.429 408.933 535.17 406.776 535.623 405.351L533.717 404.745ZM531.53 411.118C530.918 412.698 530.369 414.199 529.884 415.621L531.777 416.267C532.252 414.873 532.791 413.398 533.395 411.842L531.53 411.118ZM516.62 417.179C519.305 415.521 521.644 413.481 523.635 411.059L522.09 409.789C520.24 412.039 518.068 413.935 515.569 415.477L516.62 417.179ZM523.639 411.054C525.648 408.576 527.028 405.836 527.769 402.84L525.827 402.36C525.16 405.06 523.917 407.536 522.085 409.794L523.639 411.054ZM527.204 401.686C526.241 401.258 525.287 401.024 524.35 401.024V403.024C524.95 403.024 525.627 403.174 526.392 403.514L527.204 401.686ZM524.35 401.024C522.504 401.024 520.902 401.865 519.568 403.379L521.069 404.701C522.102 403.527 523.188 403.024 524.35 403.024V401.024ZM519.568 403.379C518.272 404.85 517.27 406.741 516.535 409.012L518.438 409.628C519.111 407.547 519.996 405.918 521.069 404.701L519.568 403.379ZM516.535 409.012C515.806 411.265 515.328 413.675 515.098 416.239L517.09 416.417C517.308 413.989 517.759 411.727 518.438 409.628L516.535 409.012ZM550.232 416.664L549.235 416.747L549.315 417.704L550.274 417.663L550.232 416.664ZM558.584 412.008L558.764 411.024L558.2 410.921L557.826 411.356L558.584 412.008ZM562.328 413.784L561.633 414.503L561.639 414.509L561.645 414.515L562.328 413.784ZM562.04 420.024L561.426 419.235L561.415 419.243L562.04 420.024ZM548.12 421.512L547.595 422.364L547.608 422.371L548.12 421.512ZM543.992 417.768L544.796 417.174L544.796 417.174L543.992 417.768ZM544.088 405.672L543.167 405.281L543.165 405.286L544.088 405.672ZM548.984 398.712L548.318 397.966L548.318 397.966L548.984 398.712ZM560.552 396.792L560.923 395.864L560.923 395.864L560.552 396.792ZM564.008 399.096L564.751 398.427L564.751 398.427L564.008 399.096ZM564.008 404.76L564.672 405.507L564.68 405.501L564.687 405.494L564.008 404.76ZM559.208 405.768L558.282 406.147L558.486 406.643L559.012 406.749L559.208 405.768ZM556.568 401.64L557.208 400.872L556.64 400.399L556.022 400.802L556.568 401.64ZM551.768 407.4L550.853 406.996L550.853 406.996L551.768 407.4ZM550.274 417.663C553.636 417.52 556.659 415.779 559.342 412.66L557.826 411.356C555.388 414.189 552.843 415.552 550.189 415.665L550.274 417.663ZM558.403 412.992C559.823 413.252 560.877 413.773 561.633 414.503L563.022 413.065C561.922 412.003 560.48 411.34 558.764 411.024L558.403 412.992ZM561.645 414.515C562.392 415.212 562.768 416.078 562.768 417.192H564.768C564.768 415.554 564.183 414.148 563.01 413.053L561.645 414.515ZM562.768 417.192C562.768 417.751 562.453 418.435 561.426 419.235L562.654 420.813C563.93 419.821 564.768 418.617 564.768 417.192H562.768ZM561.415 419.243C560.41 420.047 559.117 420.716 557.51 421.232L558.121 423.136C559.906 422.564 561.429 421.793 562.664 420.805L561.415 419.243ZM557.51 421.232C555.9 421.748 554.371 422 552.92 422V424C554.604 424 556.34 423.708 558.121 423.136L557.51 421.232ZM552.92 422C551.605 422 550.181 421.577 548.632 420.653L547.608 422.371C549.386 423.431 551.162 424 552.92 424V422ZM548.644 420.66C547.081 419.699 545.803 418.536 544.796 417.174L543.187 418.362C544.357 419.944 545.83 421.277 547.596 422.364L548.644 420.66ZM544.796 417.174C543.786 415.807 543.36 414.62 543.36 413.592H541.36C541.36 415.188 542.021 416.785 543.187 418.362L544.796 417.174ZM543.36 413.592C543.36 411.218 543.9 408.71 545.01 406.058L543.165 405.286C541.971 408.138 541.36 410.91 541.36 413.592H543.36ZM545.008 406.063C546.139 403.403 547.688 401.208 549.649 399.458L548.318 397.966C546.119 399.928 544.404 402.373 543.167 405.281L545.008 406.063ZM549.649 399.458C551.561 397.752 553.665 396.928 555.992 396.928V394.928C553.135 394.928 550.566 395.96 548.318 397.966L549.649 399.458ZM555.992 396.928C557.469 396.928 558.862 397.193 560.18 397.72L560.923 395.864C559.361 395.239 557.715 394.928 555.992 394.928V396.928ZM560.18 397.72C561.506 398.251 562.521 398.939 563.264 399.765L564.751 398.427C563.766 397.333 562.477 396.485 560.923 395.864L560.18 397.72ZM563.264 399.765C564.008 400.591 564.304 401.355 564.304 402.072H566.304C566.304 400.741 565.735 399.521 564.751 398.427L563.264 399.765ZM564.304 402.072C564.304 402.733 564.029 403.377 563.328 404.026L564.687 405.494C565.714 404.543 566.304 403.395 566.304 402.072H564.304ZM563.343 404.013C562.7 404.584 561.819 404.912 560.6 404.912V406.912C562.197 406.912 563.587 406.472 564.672 405.507L563.343 404.013ZM560.6 404.912C560.223 404.912 559.825 404.872 559.404 404.787L559.012 406.749C559.55 406.856 560.08 406.912 560.6 406.912V404.912ZM560.133 405.389C559.308 403.377 558.352 401.825 557.208 400.872L555.927 402.408C556.704 403.055 557.507 404.255 558.282 406.147L560.133 405.389ZM556.022 400.802C553.736 402.291 552.014 404.367 550.853 406.996L552.682 407.804C553.698 405.505 555.175 403.741 557.114 402.478L556.022 400.802ZM550.853 406.996C549.712 409.581 549.136 412.23 549.136 414.936H551.136C551.136 412.522 551.648 410.147 552.682 407.804L550.853 406.996ZM549.136 414.936C549.136 415.363 549.171 415.973 549.235 416.747L551.228 416.581C551.165 415.819 551.136 415.277 551.136 414.936H549.136ZM575.126 393.816L574.602 394.668L574.621 394.679L574.64 394.69L575.126 393.816ZM572.966 392.04L572.209 392.694L572.216 392.702L572.224 392.711L572.966 392.04ZM572.726 387.576L571.838 387.116L571.838 387.116L572.726 387.576ZM574.406 385.704L573.958 384.81L573.934 384.822L573.909 384.836L574.406 385.704ZM579.398 386.232L578.991 387.146L579.001 387.15L579.398 386.232ZM581.558 388.152L580.609 388.468L580.618 388.496L580.629 388.523L581.558 388.152ZM579.302 393.624L579.973 394.366L579.982 394.357L579.991 394.348L579.302 393.624ZM571.238 422.184L570.747 423.056L570.763 423.065L570.78 423.073L571.238 422.184ZM568.55 420.216L567.828 420.908L567.842 420.923L567.858 420.938L568.55 420.216ZM568.07 415.752L567.132 415.404L567.132 415.404L568.07 415.752ZM569.942 411.144L570.862 411.536L570.862 411.536L569.942 411.144ZM571.382 407.64L572.315 407.999L572.319 407.987L571.382 407.64ZM571.382 405L570.638 405.669L570.674 405.708L570.713 405.743L571.382 405ZM570.038 403.848L569.426 404.639L569.435 404.646L569.444 404.653L570.038 403.848ZM568.454 402.552L567.747 403.259L567.763 403.276L567.781 403.292L568.454 402.552ZM568.886 399.192L568.072 398.611L568.065 398.621L568.058 398.63L568.886 399.192ZM571.094 396.888L570.498 396.084L570.491 396.09L570.484 396.095L571.094 396.888ZM575.702 396.888L575.106 397.692L575.113 397.697L575.12 397.702L575.702 396.888ZM577.958 399.192L577.13 399.754L577.142 399.771L577.154 399.787L577.958 399.192ZM577.814 407.352L576.851 407.082L576.849 407.09L577.814 407.352ZM575.078 415.752L574.14 415.403L573.297 417.668L575.494 416.661L575.078 415.752ZM577.094 414.648L576.539 413.816L576.539 413.816L577.094 414.648ZM579.494 412.872L579.81 411.923L579.301 411.754L578.878 412.084L579.494 412.872ZM582.662 414.936L581.862 415.536L581.867 415.543L581.872 415.55L582.662 414.936ZM582.038 420.216L581.445 419.41L581.439 419.415L581.434 419.419L582.038 420.216ZM578.15 422.232L578.466 423.181L578.475 423.178L578.483 423.175L578.15 422.232ZM577.334 393.536C576.97 393.536 576.41 393.385 575.611 392.942L574.64 394.69C575.57 395.207 576.481 395.536 577.334 395.536V393.536ZM575.65 392.964C574.892 392.498 574.247 391.966 573.707 391.369L572.224 392.711C572.9 393.458 573.695 394.11 574.602 394.668L575.65 392.964ZM573.722 391.386C573.169 390.746 573.054 390.352 573.054 390.168H571.054C571.054 391.072 571.546 391.926 572.209 392.694L573.722 391.386ZM573.054 390.168C573.054 389.484 573.23 388.776 573.613 388.036L571.838 387.116C571.326 388.104 571.054 389.124 571.054 390.168H573.054ZM573.613 388.036C573.996 387.299 574.435 386.839 574.902 386.572L573.909 384.836C573.032 385.337 572.352 386.125 571.838 387.116L573.613 388.036ZM574.853 386.598C574.955 386.547 575.271 386.464 575.942 386.464V384.464C575.205 384.464 574.496 384.541 573.958 384.81L574.853 386.598ZM575.942 386.464C576.941 386.464 577.955 386.685 578.991 387.146L579.804 385.318C578.536 384.755 577.246 384.464 575.942 384.464V386.464ZM579.001 387.15C580.076 387.615 580.485 388.095 580.609 388.468L582.506 387.836C582.119 386.673 581.088 385.873 579.795 385.314L579.001 387.15ZM580.629 388.523C580.621 388.503 580.629 388.516 580.638 388.584C580.647 388.649 580.654 388.743 580.654 388.872H582.654C582.654 388.515 582.622 388.121 582.486 387.781L580.629 388.523ZM580.654 388.872C580.654 389.407 580.49 390.068 580.087 390.873L581.876 391.767C582.37 390.78 582.654 389.809 582.654 388.872H580.654ZM580.087 390.873C579.687 391.674 579.194 392.346 578.612 392.9L579.991 394.348C580.753 393.622 581.38 392.758 581.876 391.767L580.087 390.873ZM578.631 392.882C578.066 393.393 577.639 393.536 577.334 393.536V395.536C578.308 395.536 579.193 395.071 579.973 394.366L578.631 392.882ZM574.07 422C573.45 422 572.667 421.795 571.696 421.295L570.78 423.073C571.921 423.661 573.025 424 574.07 424V422ZM571.728 421.312C570.77 420.773 569.943 420.166 569.242 419.494L567.858 420.938C568.692 421.738 569.658 422.443 570.747 423.056L571.728 421.312ZM569.272 419.524C568.937 419.175 568.719 418.888 568.589 418.662C568.456 418.43 568.446 418.316 568.446 418.296H566.446C566.446 418.788 566.62 419.25 566.855 419.658C567.092 420.072 567.426 420.489 567.828 420.908L569.272 419.524ZM568.446 418.296C568.446 417.909 568.598 417.202 569.007 416.1L567.132 415.404C566.71 416.542 566.446 417.531 566.446 418.296H568.446ZM569.007 416.1C569.415 415.002 570.032 413.483 570.862 411.536L569.022 410.752C568.187 412.709 567.556 414.262 567.132 415.404L569.007 416.1ZM570.862 411.536C571.503 410.028 571.989 408.847 572.315 407.999L570.448 407.281C570.135 408.097 569.66 409.252 569.021 410.752L570.862 411.536ZM572.319 407.987C572.635 407.136 572.862 406.371 572.862 405.816H570.862C570.862 405.965 570.769 406.416 570.444 407.293L572.319 407.987ZM572.862 405.816C572.862 405.133 572.444 404.611 572.051 404.257L570.713 405.743C570.822 405.842 570.867 405.905 570.88 405.927C570.89 405.945 570.862 405.903 570.862 405.816H572.862ZM572.125 404.331C571.77 403.937 571.259 403.506 570.631 403.043L569.444 404.653C570.032 405.086 570.417 405.423 570.638 405.669L572.125 404.331ZM570.649 403.057C569.951 402.518 569.448 402.105 569.126 401.812L567.781 403.292C568.163 403.639 568.716 404.09 569.426 404.639L570.649 403.057ZM569.161 401.845C568.972 401.656 568.974 401.561 568.974 401.544H566.974C566.974 402.231 567.295 402.808 567.747 403.259L569.161 401.845ZM568.974 401.544C568.974 401.161 569.155 400.576 569.713 399.754L568.058 398.63C567.4 399.6 566.974 400.583 566.974 401.544H568.974ZM569.699 399.773C570.285 398.953 570.953 398.258 571.703 397.681L570.484 396.095C569.57 396.798 568.766 397.639 568.072 398.611L569.699 399.773ZM571.689 397.692C572.498 397.092 573.018 396.928 573.302 396.928V394.928C572.369 394.928 571.417 395.404 570.498 396.084L571.689 397.692ZM573.302 396.928C573.745 396.928 574.339 397.123 575.106 397.692L576.297 396.084C575.337 395.373 574.33 394.928 573.302 394.928V396.928ZM575.12 397.702C575.922 398.274 576.59 398.957 577.13 399.754L578.785 398.63C578.109 397.635 577.274 396.782 576.283 396.074L575.12 397.702ZM577.154 399.787C577.771 400.62 577.918 401.101 577.918 401.304H579.918C579.918 400.419 579.424 399.492 578.761 398.597L577.154 399.787ZM577.918 401.304C577.918 402.571 577.581 404.48 576.851 407.082L578.776 407.622C579.519 404.976 579.918 402.853 579.918 401.304H577.918ZM576.849 407.09C576.154 409.648 575.252 412.418 574.14 415.403L576.015 416.101C577.143 413.07 578.065 410.24 578.779 407.614L576.849 407.09ZM575.494 416.661C576.3 416.292 577.02 415.899 577.648 415.48L576.539 413.816C576.015 414.165 575.391 414.508 574.661 414.843L575.494 416.661ZM577.648 415.48C578.256 415.075 579.079 414.465 580.109 413.66L578.878 412.084C577.86 412.879 577.083 413.453 576.539 413.816L577.648 415.48ZM579.177 413.821C580.492 414.259 581.348 414.851 581.862 415.536L583.462 414.336C582.631 413.229 581.376 412.445 579.81 411.923L579.177 413.821ZM581.872 415.55C582.418 416.251 582.67 416.982 582.67 417.768H584.67C584.67 416.506 584.249 415.349 583.451 414.322L581.872 415.55ZM582.67 417.768C582.67 418.125 582.438 418.681 581.445 419.41L582.63 421.022C583.814 420.151 584.67 419.075 584.67 417.768H582.67ZM581.434 419.419C580.476 420.144 579.276 420.772 577.816 421.289L578.483 423.175C580.095 422.604 581.487 421.888 582.641 421.013L581.434 419.419ZM577.833 421.283C576.365 421.773 575.115 422 574.07 422V424C575.392 424 576.863 423.715 578.466 423.181L577.833 421.283ZM596.762 395.88L596.874 394.886L596.671 394.863L596.475 394.922L596.762 395.88ZM602.954 397.944L602.438 398.8L602.446 398.805L602.455 398.81L602.954 397.944ZM607.178 413.832L606.269 413.417L606.269 413.417L607.178 413.832ZM602.234 420.36L602.875 421.128L602.875 421.128L602.234 420.36ZM591.098 421.608L590.544 422.44L590.55 422.444L590.557 422.449L591.098 421.608ZM587.45 418.152L586.63 418.724L586.638 418.735L586.646 418.746L587.45 418.152ZM586.73 408.504L587.704 408.732L587.705 408.729L586.73 408.504ZM588.938 402.456L588.455 401.58L588.186 401.729L588.047 402.003L588.938 402.456ZM592.874 401.832L592.611 402.797L594.414 403.288L593.823 401.516L592.874 401.832ZM593.738 397.704L592.989 397.041L592.982 397.05L592.975 397.058L593.738 397.704ZM593.45 417.528L592.464 417.692L592.657 418.851L593.77 418.476L593.45 417.528ZM599.642 412.92L600.471 413.48L600.471 413.48L599.642 412.92ZM602.57 405.144L603.558 405.302L603.656 404.689L603.15 404.329L602.57 405.144ZM595.322 403.656L595.223 402.661L593.717 402.812L594.446 404.138L595.322 403.656ZM595.85 405.816L596.695 406.352L596.85 406.106V405.816H595.85ZM593.93 410.184L594.892 410.459L594.893 410.454L593.93 410.184ZM596.65 396.874C598.787 397.114 600.712 397.759 602.438 398.8L603.471 397.088C601.485 395.889 599.282 395.158 596.874 394.886L596.65 396.874ZM602.455 398.81C604.236 399.836 605.588 401.053 606.546 402.447L608.194 401.313C607.041 399.635 605.449 398.228 603.454 397.078L602.455 398.81ZM606.546 402.447C607.513 403.852 607.954 405.194 607.954 406.488H609.954C609.954 404.71 609.34 402.98 608.194 401.313L606.546 402.447ZM607.954 406.488C607.954 408.619 607.407 410.925 606.269 413.417L608.088 414.247C609.318 411.555 609.954 408.965 609.954 406.488H607.954ZM606.269 413.417C605.145 415.877 603.587 417.931 601.594 419.592L602.875 421.128C605.106 419.269 606.844 416.971 608.088 414.247L606.269 413.417ZM601.594 419.592C599.65 421.212 597.522 422 595.178 422V424C598.019 424 600.595 423.028 602.875 421.128L601.594 419.592ZM595.178 422C594.145 422 592.972 421.626 591.64 420.767L590.557 422.449C592.105 423.446 593.651 424 595.178 424V422ZM591.653 420.776C590.306 419.878 589.176 418.806 588.255 417.558L586.646 418.746C587.709 420.186 589.011 421.418 590.544 422.44L591.653 420.776ZM588.27 417.58C587.364 416.281 587.01 415.267 587.01 414.504H585.01C585.01 415.853 585.617 417.271 586.63 418.724L588.27 417.58ZM587.01 414.504C587.01 412.635 587.24 410.711 587.704 408.732L585.757 408.276C585.261 410.393 585.01 412.469 585.01 414.504H587.01ZM587.705 408.729C588.166 406.73 588.874 404.791 589.83 402.909L588.047 402.003C587.019 404.025 586.255 406.118 585.756 408.279L587.705 408.729ZM589.421 403.332C590.223 402.889 590.986 402.688 591.722 402.688V400.688C590.603 400.688 589.51 400.999 588.455 401.58L589.421 403.332ZM591.722 402.688C592.062 402.688 592.356 402.727 592.611 402.797L593.137 400.867C592.689 400.745 592.215 400.688 591.722 400.688V402.688ZM593.823 401.516C593.737 401.257 593.682 400.92 593.682 400.488H591.682C591.682 401.08 591.756 401.639 591.926 402.148L593.823 401.516ZM593.682 400.488C593.682 399.716 593.94 399.014 594.502 398.35L592.975 397.058C592.129 398.058 591.682 399.212 591.682 400.488H593.682ZM594.487 398.367C595.077 397.7 595.912 397.179 597.05 396.838L596.475 394.922C595.053 395.349 593.872 396.044 592.989 397.041L594.487 398.367ZM593.77 418.476C596.619 417.515 598.868 415.85 600.471 413.48L598.814 412.36C597.473 414.342 595.594 415.749 593.131 416.58L593.77 418.476ZM600.471 413.48C602.037 411.165 603.059 408.431 603.558 405.302L601.583 404.986C601.122 407.873 600.192 410.323 598.814 412.36L600.471 413.48ZM603.15 404.329C601.486 403.146 599.306 402.608 596.714 402.608V404.608C599.05 404.608 600.775 405.094 601.991 405.959L603.15 404.329ZM596.714 402.608C596.097 402.608 595.593 402.624 595.223 402.661L595.422 404.651C595.692 404.624 596.116 404.608 596.714 404.608V402.608ZM594.446 404.138C594.709 404.617 594.85 405.168 594.85 405.816H596.85C596.85 404.864 596.639 403.975 596.199 403.174L594.446 404.138ZM595.006 405.28C594.118 406.68 593.44 408.227 592.967 409.914L594.893 410.454C595.317 408.941 595.919 407.576 596.695 406.352L595.006 405.28ZM592.969 409.909C592.496 411.565 592.258 413.241 592.258 414.936H594.258C594.258 413.431 594.469 411.939 594.892 410.459L592.969 409.909ZM592.258 414.936C592.258 415.939 592.325 416.859 592.464 417.692L594.437 417.364C594.32 416.661 594.258 415.853 594.258 414.936H592.258Z" fill="#26283B"/>
</g>
<path d="M625.973 374.095C626.174 374.548 626.591 375.13 627.187 375.724C628.03 376.567 629.184 377.456 630.398 378.227C631.612 379 632.882 379.661 633.941 380.064C634.471 380.261 634.954 380.397 635.334 380.453C635.493 380.477 635.634 380.486 635.751 380.481C634.71 378.897 633.107 377.371 631.321 376.21C629.573 375.073 627.66 374.293 625.973 374.095ZM625.124 374.289C623.169 375.609 622.499 377.866 622.054 380.102C622.434 380.913 623.713 382.272 625.396 383.481C627.112 384.714 629.235 385.83 631.185 386.308C632.802 385.896 633.815 385.071 634.527 384.053C635.109 383.228 635.484 382.272 635.779 381.33C635.596 381.335 635.404 381.316 635.207 381.288C634.738 381.222 634.213 381.067 633.641 380.852C632.582 380.449 631.382 379.83 630.205 379.103L627.744 381.358L628.888 378.227C628.03 377.615 627.238 376.967 626.591 376.32C625.902 375.635 625.359 374.966 625.124 374.289ZM622.626 382.258L616.261 389.828L616.25 389.842C616.227 389.866 616.221 389.871 616.221 389.922C616.221 389.974 616.234 390.072 616.289 390.203C616.399 390.466 616.66 390.841 617.032 391.244C617.058 391.272 617.087 391.305 617.115 391.333L618.381 390.26L617.475 391.694C618.202 392.397 619.171 393.161 620.193 393.836C621.182 394.492 622.227 395.069 623.127 395.444L624.899 392.102L624.332 395.833C624.613 395.894 624.857 395.913 625.03 395.899C625.312 395.871 625.387 395.814 625.448 395.66L625.452 395.65L629.54 386.683C629.146 386.538 628.748 386.374 628.354 386.191L627.074 387.438L627.627 385.839C626.662 385.342 625.738 384.766 624.904 384.166C624.027 383.538 623.249 382.891 622.626 382.258Z" fill="white"/>
<defs>
<filter id="filter0_d_1215_1008" x="462.496" y="384.464" width="147.459" height="39.5361" filterUnits="userSpaceOnUse" color-interpolation-filters="sRGB">
<feFlood flood-opacity="0" result="BackgroundImageFix"/>
<feColorMatrix in="SourceAlpha" type="matrix" values="0 0 0 0 0 0 0 0 0 0 0 0 0 0 0 0 0 0 127 0" result="hardAlpha"/>
<feOffset/>
<feGaussianBlur stdDeviation="0.5"/>
<feComposite in2="hardAlpha" operator="out"/>
<feColorMatrix type="matrix" values="0 0 0 0 0 0 0 0 0 0 0 0 0 0 0 0 0 0 0.25 0"/>
<feBlend mode="normal" in2="BackgroundImageFix" result="effect1_dropShadow_1215_1008"/>
<feBlend mode="normal" in="SourceGraphic" in2="effect1_dropShadow_1215_1008" result="shape"/>
</filter>
</defs>
</svg>
