<svg width="422" height="265" viewBox="0 0 422 265" fill="none" xmlns="http://www.w3.org/2000/svg">
<path d="M72.9733 65.3751L74.4484 65.6469L72.9733 65.3751ZM171.286 40.7517L169.823 41.0822L171.286 40.7517ZM0.502983 261.905C0.450766 262.732 1.07867 263.445 1.90545 263.497L15.3786 264.348C16.2054 264.4 16.918 263.772 16.9702 262.945C17.0224 262.119 16.3945 261.406 15.5677 261.354L3.59156 260.598L4.34794 248.621C4.40016 247.795 3.77225 247.082 2.94547 247.03C2.11869 246.978 1.40612 247.606 1.3539 248.432L0.502983 261.905ZM2 262C2.9917 263.125 2.99171 263.125 2.99173 263.125C2.99174 263.125 2.99176 263.125 2.99179 263.125C2.99183 263.125 2.9919 263.125 2.99198 263.125C2.99214 263.125 2.99238 263.125 2.99268 263.125C2.99328 263.124 2.99416 263.123 2.99531 263.122C2.99761 263.12 3.00101 263.117 3.00551 263.113C3.0145 263.105 3.02785 263.094 3.04553 263.078C3.0809 263.047 3.13356 263 3.20316 262.939C3.34235 262.815 3.5493 262.632 3.82112 262.39C4.36475 261.907 5.16788 261.19 6.20748 260.257L4.20299 258.025C3.16717 258.955 2.36768 259.668 1.82755 260.148C1.55749 260.388 1.35227 260.57 1.21477 260.692C1.14602 260.753 1.0942 260.799 1.05967 260.829C1.0424 260.845 1.02946 260.856 1.02088 260.863C1.01659 260.867 1.0134 260.87 1.0113 260.872C1.01025 260.873 1.00948 260.874 1.00898 260.874C1.00873 260.874 1.00855 260.874 1.00843 260.874C1.00838 260.875 1.00834 260.875 1.00832 260.875C1.00831 260.875 1.0083 260.875 1.0083 260.875C1.0083 260.875 1.0083 260.875 2 262ZM12.8232 254.261C14.786 252.467 17.0063 250.427 19.4505 248.163L17.4117 245.962C14.9728 248.221 12.7576 250.257 10.7996 252.046L12.8232 254.261ZM25.9565 242.097C28.011 240.17 30.1717 238.132 32.4252 235.992L30.3595 233.816C28.1105 235.952 25.9542 237.986 23.904 239.909L25.9565 242.097ZM38.8733 229.832C40.9563 227.83 43.0993 225.759 45.2937 223.625L43.2018 221.474C41.012 223.604 38.8733 225.671 36.7945 227.669L38.8733 229.832ZM51.645 217.408C53.7148 215.37 55.8201 213.284 57.9545 211.155L55.8358 209.031C53.7061 211.155 51.6054 213.236 49.54 215.271L51.645 217.408ZM64.2379 204.846C66.3036 202.758 68.3897 200.635 70.491 198.482L68.3437 196.387C66.2475 198.535 64.1662 200.653 62.1052 202.736L64.2379 204.846ZM76.7058 192.066C78.7452 189.945 80.7934 187.799 82.8459 185.631L80.6674 183.569C78.6205 185.731 76.5775 187.871 74.5434 189.987L76.7058 192.066ZM88.9436 179.138C90.9624 176.971 92.9807 174.785 94.9939 172.585L92.7806 170.56C90.7735 172.753 88.7613 174.932 86.7482 177.094L88.9436 179.138ZM100.981 165.979C102.966 163.769 104.941 161.547 106.902 159.316L104.649 157.335C102.695 159.558 100.727 161.772 98.7489 163.975L100.981 165.979ZM112.755 152.584C114.698 150.323 116.622 148.057 118.524 145.788L116.224 143.861C114.331 146.12 112.415 148.376 110.48 150.628L112.755 152.584ZM124.201 138.92C126.097 136.594 127.963 134.269 129.796 131.948L127.441 130.089C125.619 132.397 123.762 134.71 121.876 137.025L124.201 138.92ZM135.271 124.891C137.092 122.499 138.872 120.116 140.605 117.745L138.182 115.975C136.462 118.329 134.694 120.697 132.885 123.073L135.271 124.891ZM145.773 110.5C147.51 108.005 149.187 105.526 150.798 103.07L148.289 101.425C146.694 103.857 145.033 106.312 143.311 108.787L145.773 110.5ZM155.595 95.4923C157.189 92.8764 158.697 90.2911 160.111 87.7422L157.488 86.287C156.096 88.7971 154.608 91.347 153.033 93.9312L155.595 95.4923ZM164.271 79.7831C165.635 76.9899 166.868 74.2492 167.955 71.5699L165.176 70.4417C164.117 73.0501 162.913 75.7277 161.575 78.4662L164.271 79.7831ZM170.971 63.0561C171.879 60.0107 172.559 57.0598 172.985 54.2199L170.018 53.7749C169.616 56.455 168.97 59.2673 168.096 62.1991L170.971 63.0561ZM173.416 45.0069C173.303 43.4307 173.083 41.9005 172.749 40.4212L169.823 41.0822C170.121 42.4037 170.321 43.784 170.424 45.2212L173.416 45.0069ZM172.749 40.4212C172.379 38.7844 171.967 37.1978 171.515 35.6613L168.637 36.5084C169.071 37.9817 169.467 39.5062 169.823 41.0822L172.749 40.4212ZM168.066 26.4574C166.611 23.3325 164.955 20.4877 163.127 17.9235L160.685 19.6651C162.401 22.0721 163.965 24.7568 165.347 27.724L168.066 26.4574ZM156.551 10.5224C154.002 8.23445 151.261 6.33844 148.377 4.83405L146.99 7.49384C149.647 8.88004 152.181 10.6316 154.547 12.755L156.551 10.5224ZM139.014 1.42029C135.78 0.703379 132.456 0.407116 129.099 0.525235L129.204 3.52338C132.316 3.41393 135.385 3.68869 138.364 4.34917L139.014 1.42029ZM119.29 2.03069C116.18 2.87491 113.089 4.06585 110.057 5.5976L111.41 8.27519C114.268 6.83141 117.17 5.71492 120.076 4.9259L119.29 2.03069ZM101.694 10.8229C99.1541 12.7341 96.6914 14.906 94.3339 17.3353L96.4868 19.4246C98.7396 17.1032 101.086 15.0348 103.497 13.22L101.694 10.8229ZM88.0173 24.8246C86.149 27.3673 84.3811 30.1045 82.732 33.0342L85.3463 34.5057C86.9376 31.6787 88.6402 29.0435 90.4349 26.6009L88.0173 24.8246ZM78.4188 41.789C77.1761 44.689 76.0393 47.7373 75.0211 50.9326L77.8796 51.8433C78.8691 48.7377 79.9724 45.7799 81.1763 42.9707L78.4188 41.789ZM72.4801 60.3105C72.1257 61.8783 71.798 63.476 71.4981 65.1032L74.4484 65.6469C74.7411 64.0586 75.0608 62.5002 75.4062 60.9719L72.4801 60.3105ZM71.4981 65.1032C71.2082 66.6766 71.0469 68.2514 71.0102 69.825L74.0094 69.895C74.0424 68.4801 74.1874 67.0637 74.4484 65.6469L71.4981 65.1032ZM72.2251 79.1426C73.0422 82.0372 74.2561 84.8972 75.8289 87.7095L78.4472 86.2452C76.9761 83.6147 75.8587 80.9716 75.1123 78.3275L72.2251 79.1426ZM81.0259 95.3092C82.8737 97.5907 84.9542 99.8354 87.2485 102.037L89.3254 99.8717C87.1119 97.7481 85.118 95.5952 83.3572 93.4211L81.0259 95.3092ZM94.1479 108.027C96.4606 109.857 98.9227 111.652 101.523 113.407L103.201 110.921C100.659 109.204 98.2584 107.454 96.0094 105.675L94.1479 108.027ZM109.211 118.248C111.742 119.738 114.374 121.193 117.101 122.612L118.485 119.951C115.803 118.555 113.216 117.124 110.733 115.663L109.211 118.248ZM125.218 126.599C127.916 127.849 130.689 129.066 133.533 130.246L134.683 127.475C131.876 126.31 129.14 125.11 126.48 123.877L125.218 126.599ZM141.958 133.559C144.733 134.592 147.564 135.591 150.447 136.553L151.397 133.708C148.546 132.756 145.747 131.768 143.005 130.747L141.958 133.559ZM159.08 139.282C161.94 140.136 164.843 140.955 167.785 141.737L168.555 138.838C165.642 138.064 162.769 137.253 159.938 136.408L159.08 139.282ZM176.52 143.922C179.436 144.607 182.384 145.255 185.362 145.865L185.964 142.926C183.014 142.322 180.094 141.68 177.206 141.002L176.52 143.922ZM194.22 147.551C197.167 148.07 200.137 148.551 203.128 148.993L203.566 146.025C200.603 145.587 197.66 145.111 194.74 144.597L194.22 147.551ZM212.096 150.192C215.067 150.548 218.055 150.864 221.054 151.14L221.329 148.152C218.357 147.879 215.397 147.566 212.453 147.213L212.096 150.192ZM230.063 151.841C233.06 152.033 236.066 152.182 239.078 152.289L239.184 149.291C236.2 149.185 233.223 149.037 230.254 148.847L230.063 151.841ZM248.106 152.478C251.114 152.497 254.126 152.473 257.137 152.402L257.067 149.403C254.086 149.473 251.104 149.497 248.125 149.478L248.106 152.478ZM266.162 152.053C269.17 151.89 272.175 151.68 275.173 151.422L274.915 148.433C271.949 148.689 268.977 148.896 266 149.058L266.162 152.053ZM284.161 150.497C287.157 150.138 290.144 149.728 293.117 149.267L292.657 146.302C289.719 146.759 286.767 147.163 283.804 147.518L284.161 150.497ZM302.014 147.721C304.984 147.149 307.937 146.522 310.869 145.839L310.189 142.917C307.294 143.591 304.379 144.21 301.446 144.775L302.014 147.721ZM319.628 143.614C322.544 142.81 325.437 141.947 328.302 141.024L327.382 138.168C324.558 139.078 321.707 139.929 318.831 140.722L319.628 143.614ZM336.855 138.055C339.686 137 342.486 135.881 345.251 134.698L344.071 131.94C341.351 133.104 338.595 134.205 335.807 135.244L336.855 138.055ZM353.498 130.923C356.215 129.595 358.893 128.199 361.528 126.734L360.07 124.112C357.482 125.551 354.852 126.922 352.181 128.228L353.498 130.923ZM369.326 122.111C371.883 120.497 374.392 118.811 376.85 117.051L375.104 114.612C372.695 116.337 370.234 117.99 367.725 119.574L369.326 122.111ZM384.067 111.551C386.41 109.65 388.699 107.674 390.93 105.622L388.898 103.414C386.714 105.424 384.473 107.359 382.177 109.222L384.067 111.551ZM397.405 99.2721C399.492 97.0912 401.517 94.8341 403.478 92.4995L401.181 90.5701C399.262 92.8547 397.28 95.0636 395.238 97.1982L397.405 99.2721ZM409.069 85.3892C410.852 82.9641 412.571 80.4641 414.221 77.8877L411.694 76.2697C410.079 78.7917 408.397 81.2386 406.652 83.6119L409.069 85.3892ZM418.859 70.1145C419.599 68.7821 420.321 67.4311 421.026 66.0615L418.358 64.6887C417.668 66.0305 416.96 67.3538 416.236 68.6588L418.859 70.1145Z" fill="#19303C"/>
</svg>
