<svg width="786" height="142" viewBox="0 0 786 142" fill="none" xmlns="http://www.w3.org/2000/svg">
<g clip-path="url(#clip0_1_120)">
<rect width="786" height="142" fill="white"/>
<path d="M0 2L32.75 22.3984C65.5 43.0156 131 83.4844 196.5 98.25C262 113.016 327.5 100.984 393 77.8516C458.5 54.5 524 19.5 589.5 16.6016C655 13.4844 720.5 43.0156 753.25 57.3984L786 72V142H753.25C720.5 142 655 142 589.5 142C524 142 458.5 142 393 142C327.5 142 262 142 196.5 142C131 142 65.5 142 32.75 142H0V2Z" fill="#8C8FA7" fill-opacity="0.5"/>
<path d="M551.768 126.999C550.24 126.994 548.72 126.796 547.241 126.411L546.95 126.33L546.679 126.194C536.906 121.273 528.661 114.773 522.173 106.875C516.802 100.299 512.615 92.8319 509.799 84.8104C506.432 75.2068 504.813 65.0734 505.017 54.894C505.021 54.6804 505.025 54.5154 505.025 54.4017C505.025 49.4535 507.76 45.1117 511.993 43.3405C515.232 41.985 544.647 29.8523 546.772 28.9757C550.775 26.9617 555.044 28.6427 555.728 28.9366C557.26 29.5659 584.452 40.7347 590.328 43.5446C596.384 46.4405 598 51.643 598 54.2605C598 66.1105 595.956 77.1854 591.926 87.1774C588.671 95.2651 584.057 102.732 578.286 109.252C567.152 121.835 556.014 126.296 555.907 126.335C554.576 126.795 553.175 127.02 551.768 126.999ZM549.149 120.484C550.114 120.701 552.337 121.027 553.786 120.496C555.627 119.822 564.949 114.968 573.66 105.124C585.695 91.5221 591.802 74.424 591.811 54.3042C591.79 53.8966 591.501 50.9893 587.667 49.156C581.905 46.4005 553.642 34.7947 553.357 34.6778L553.279 34.6445C552.687 34.3953 550.802 33.8703 549.502 34.554L549.242 34.6758C548.927 34.8058 517.703 47.6842 514.373 49.0776C512.044 50.0523 511.214 52.467 511.214 54.4017C511.214 54.5431 511.21 54.7488 511.205 55.0146C510.939 68.7814 514.111 102.657 549.149 120.484Z" fill="#3F3D56"/>
<path d="M548.061 31.6922C548.061 31.6922 516.486 44.7181 513.103 46.134C509.72 47.5499 508.029 50.9479 508.029 54.346C508.029 57.7441 505.492 102.084 548.061 123.523C548.061 123.523 551.925 124.597 554.856 123.523C557.787 122.449 595 104.326 595 54.2044C595 54.2044 595 49.1073 589.08 46.2756C583.16 43.4439 554.536 31.6922 554.536 31.6922C554.536 31.6922 551.021 30.1348 548.061 31.6922Z" fill="#19303C"/>
<path opacity="0.1" d="M551 42V111C551 111 519.725 95.7055 520.002 55.4967L551 42Z" fill="black"/>
<path d="M552.033 92L542 78.7673L547.835 74.1125L552.585 80.3778L568.633 63L574 68.2156L552.033 92Z" fill="white"/>
<path d="M692.228 13H639.772C631.614 13 625 19.5513 625 27.6327V146.367C625 154.449 631.614 161 639.772 161H692.228C700.386 161 707 154.449 707 146.367V27.6327C707 19.5513 700.386 13 692.228 13Z" fill="#3F3D56"/>
<path d="M705 27.239V145.761C704.996 149.271 703.606 152.636 701.135 155.118C698.664 157.6 695.314 158.996 691.819 159H640.181C636.686 158.996 633.336 157.6 630.865 155.118C628.394 152.636 627.004 149.271 627 145.761V27.239C627.004 23.7291 628.394 20.364 630.865 17.8821C633.336 15.4002 636.686 14.0041 640.181 14H646.933V16.3429C646.933 17.4035 647.353 18.4208 648.1 19.1708C648.846 19.9208 649.859 20.3421 650.915 20.3422C659.657 22.9947 669.919 22.5807 681.085 20.3422C682.141 20.3421 683.154 19.9208 683.9 19.1708C684.647 18.4208 685.067 17.4035 685.067 16.3429V14H691.819C695.314 14.0041 698.664 15.4002 701.135 17.8821C703.606 20.364 704.996 23.7291 705 27.239Z" fill="white"/>
<path d="M625 43C624.735 42.9997 624.481 42.8942 624.293 42.7068C624.106 42.5193 624 42.2651 624 42V40C624 39.7348 624.105 39.4804 624.293 39.2929C624.48 39.1054 624.735 39 625 39C625.265 39 625.52 39.1054 625.707 39.2929C625.895 39.4804 626 39.7348 626 40V42C626 42.2651 625.894 42.5193 625.707 42.7068C625.519 42.8942 625.265 42.9997 625 43Z" fill="#3F3D56"/>
<path d="M625 53C624.735 52.9997 624.481 52.8873 624.293 52.6874C624.106 52.4876 624 52.2167 624 51.9341V46.0659C624 45.7832 624.105 45.5121 624.293 45.3122C624.48 45.1123 624.735 45 625 45C625.265 45 625.52 45.1123 625.707 45.3122C625.895 45.5121 626 45.7832 626 46.0659V51.9341C626 52.2167 625.894 52.4876 625.707 52.6874C625.519 52.8873 625.265 52.9997 625 53Z" fill="#3F3D56"/>
<path d="M625 61C624.735 60.9997 624.481 60.9014 624.293 60.7265C624.106 60.5517 624 60.3146 624 60.0673V54.9327C624 54.6853 624.105 54.4481 624.293 54.2732C624.48 54.0983 624.735 54 625 54C625.265 54 625.52 54.0983 625.707 54.2732C625.895 54.4481 626 54.6853 626 54.9327V60.0673C626 60.3146 625.894 60.5517 625.707 60.7265C625.519 60.9014 625.265 60.9997 625 61Z" fill="#3F3D56"/>
<path d="M707 41C706.735 40.9998 706.481 41.1086 706.294 41.3025C706.106 41.4964 706 41.7596 706 42.0342V55.9632C706 56.2382 706.105 56.5019 706.293 56.6963C706.48 56.8908 706.735 57 707 57C707.265 57 707.52 56.8908 707.707 56.6963C707.895 56.5019 708 56.2382 708 55.9632V42.0342C707.999 41.7597 707.893 41.4968 707.706 41.303C707.519 41.1092 707.265 41.0002 707 41Z" fill="#3F3D56"/>
<path d="M643.784 20H637.216C636.894 20 636.584 19.842 636.356 19.5607C636.128 19.2794 636 18.8978 636 18.5C636 18.1022 636.128 17.7206 636.356 17.4393C636.584 17.158 636.894 17 637.216 17H643.784C644.106 17 644.416 17.158 644.644 17.4393C644.872 17.7206 645 18.1022 645 18.5C645 18.8978 644.872 19.2794 644.644 19.5607C644.416 19.842 644.106 20 643.784 20Z" fill="#E6E6E6"/>
<path d="M683.2 144.577C681.327 144.693 680.291 142.392 681.709 141.051C681.761 140.847 681.798 140.7 681.85 140.497C681.831 140.452 681.812 140.408 681.794 140.363C679.899 135.898 676.063 138.405 671.6 140.401C667.919 142.047 664.209 144.192 667.288 152.544C667.935 154.298 667.159 156.284 667.575 158.103C663.659 149.658 661.626 140.48 661.613 131.191C661.612 128.859 661.743 126.53 662.005 124.214C662.222 122.314 662.523 120.429 662.907 118.557C664.522 110.765 667.552 103.327 671.849 96.6034C671.302 96.6107 670.754 96.6166 670.206 96.621C669.218 98.2151 668.298 99.847 667.445 101.517C667.64 99.8954 667.672 98.2589 667.541 96.6313C660.886 96.6289 654.235 96.4185 648.356 96C648.579 113.815 655.23 117.53 663.387 108.997C663.616 109.113 663.838 109.229 664.067 109.339C662.102 114.844 660.87 120.578 660.401 126.396C660.135 129.829 660.151 133.278 660.447 136.708C660.441 136.668 660.436 136.627 660.43 136.587C659.68 132.772 657.622 129.33 654.602 126.842C650.118 123.2 643.782 121.859 638.944 118.932C636.615 117.523 633.631 119.344 634.037 122.013C634.044 122.056 634.051 122.098 634.057 122.141C634.778 122.431 635.481 122.766 636.16 123.142C636.548 123.359 636.929 123.589 637.301 123.833C639.422 125.22 638.689 128.471 636.176 128.854L636.119 128.863C636.078 128.869 636.043 128.875 636.002 128.88C637.234 131.789 638.963 134.467 641.114 136.795C641.714 155.092 651.452 152.733 661.871 145.799H661.876C662.934 150.344 664.467 154.768 666.45 159H682.791C682.849 158.821 682.902 158.635 682.955 158.456C681.442 158.55 679.924 158.46 678.433 158.189C679.646 156.719 680.858 155.236 682.07 153.766C682.097 153.738 682.123 153.709 682.146 153.679C682.761 152.926 683.382 152.179 683.997 151.427L683.997 151.426C684.03 149.118 683.762 146.817 683.2 144.577L683.2 144.577Z" fill="#19303C"/>
<path d="M665.265 88.2437C663.695 84.5095 660.752 81.3646 658.161 78.1364C655.049 74.2588 648.666 75.9511 648.118 80.8665C648.112 80.9141 648.107 80.9617 648.102 81.0092C648.487 81.2233 648.864 81.4506 649.232 81.691C651.333 83.0609 650.607 86.2721 648.118 86.651L648.061 86.6595C648.199 88.0273 648.441 89.3828 648.786 90.7143C648.373 92.2399 648.11 93.8011 648 95.3765C653.823 95.7898 660.409 95.9977 667 96C666.786 93.1419 666.142 90.3275 665.265 88.2437Z" fill="#E6E6E6"/>
<path d="M682.756 83.5431C683.349 82.3885 683.768 81.1559 684 79.8838C683.637 79.9304 682.631 74.5172 682.905 74.1851C682.399 73.4335 681.494 73.0599 680.941 72.3264C678.194 68.6787 674.408 69.3156 672.432 74.2726C668.21 76.3589 668.169 79.819 670.759 83.1469C672.407 85.264 672.634 88.1288 674.08 90.3954C673.931 90.5819 673.776 90.7625 673.628 90.949C672.089 92.8858 670.663 94.906 669.356 97C669.914 96.9956 670.47 96.9897 671.026 96.9823C672.338 94.9508 673.764 92.9929 675.3 91.118C678.518 89.3988 681.12 86.7551 682.756 83.5431Z" fill="#E6E6E6"/>
<path opacity="0.1" d="M705 27.2356V90.5266C705 97.8245 627 97.8245 627 90.5266V27.2356C627.004 23.7265 628.394 20.3624 630.865 17.8811C633.336 15.3998 636.686 14.0041 640.181 14H646.933V16.3423C646.933 17.4027 647.353 18.4196 648.1 19.1694C648.846 19.9192 649.859 20.3405 650.915 20.3405C659.286 22.9805 669.62 22.5459 681.085 20.3405C682.141 20.3405 683.154 19.9192 683.9 19.1694C684.647 18.4196 685.067 17.4027 685.067 16.3423V14H691.819C695.314 14.0041 698.664 15.3998 701.135 17.8811C703.606 20.3624 704.996 23.7265 705 27.2356Z" fill="black"/>
<path d="M673.75 34H671.5C670.638 34.0009 669.812 34.3387 669.203 34.9391C668.594 35.5396 668.251 36.3537 668.25 37.2029V39.6667H664.25C663.388 39.6676 662.562 40.0054 661.953 40.6058C661.344 41.2063 661.001 42.0204 661 42.8696V47.7971C661.001 48.6463 661.344 49.4604 661.953 50.0609C662.562 50.6613 663.388 50.9991 664.25 51H669.25C670.112 50.9991 670.938 50.6613 671.547 50.0609C672.156 49.4604 672.499 48.6463 672.5 47.7971V42.8696C672.499 42.0204 672.156 41.2063 671.547 40.6058C670.938 40.0054 670.112 39.6676 669.25 39.6667H668.75V37.2029C668.751 36.4844 669.041 35.7955 669.556 35.2874C670.072 34.7794 670.771 34.4936 671.5 34.4928H673.75C674.479 34.4936 675.178 34.7794 675.694 35.2874C676.209 35.7955 676.499 36.4844 676.5 37.2029V39.913H677V37.2029C676.999 36.3537 676.656 35.5396 676.047 34.9391C675.438 34.3387 674.612 34.0009 673.75 34ZM672 42.8696V47.7971C671.999 48.5156 671.709 49.2045 671.194 49.7126C670.678 50.2206 669.979 50.5064 669.25 50.5072H664.25C663.521 50.5064 662.822 50.2206 662.306 49.7126C661.791 49.2045 661.501 48.5156 661.5 47.7971V42.8696C661.501 42.151 661.791 41.4622 662.306 40.9541C662.822 40.446 663.521 40.1602 664.25 40.1594C666.617 41.5168 667.922 40.8147 669.25 40.1594C669.979 40.1602 670.678 40.446 671.194 40.9541C671.709 41.4622 671.999 42.151 672 42.8696Z" fill="white"/>
<path d="M666.5 48C666.994 48 667.478 47.8534 667.889 47.5787C668.3 47.304 668.62 46.9135 668.81 46.4567C668.999 45.9999 669.048 45.4972 668.952 45.0123C668.855 44.5273 668.617 44.0819 668.268 43.7322C667.918 43.3826 667.473 43.1445 666.988 43.048C666.503 42.9516 666 43.0011 665.543 43.1903C665.086 43.3795 664.696 43.7 664.421 44.1111C664.147 44.5222 664 45.0055 664 45.5C664.001 46.1628 664.264 46.7982 664.733 47.2669C665.202 47.7356 665.837 47.9992 666.5 48ZM666.5 44.9444C667.572 44.9444 668.444 44.4278 668.444 45.5C668.444 46.0157 668.24 46.5103 667.875 46.8749C667.51 47.2396 667.016 47.4444 666.5 47.4444C665.984 47.4444 665.49 47.2396 665.125 46.8749C664.76 46.5103 664.556 46.0157 664.556 45.5C664.556 44.4278 665.428 44.9444 666.5 44.9444Z" fill="white"/>
<path d="M666.5 46C666.776 46 667 45.7761 667 45.5C667 45.2239 666.776 45 666.5 45C666.224 45 666 45.2239 666 45.5C666 45.7761 666.224 46 666.5 46Z" fill="white"/>
<path opacity="0.1" d="M627 89V90.2957C627 97.9014 705 97.9014 705 90.2957V89C705 96.6057 627 96.6057 627 89Z" fill="black"/>
<path d="M696.273 106.96C696.775 106.862 697.218 106.581 697.507 106.177C697.796 105.773 697.908 105.277 697.819 104.795C697.8 104.698 697.771 104.602 697.735 104.508L703 100.299L701.7 97L695.141 103.51C694.747 103.684 694.425 103.976 694.224 104.343C694.023 104.709 693.955 105.129 694.03 105.536C694.121 106.003 694.403 106.417 694.815 106.686C695.226 106.955 695.732 107.057 696.222 106.97C696.239 106.967 696.256 106.963 696.273 106.96Z" fill="#7A565B"/>
<path d="M727.594 44L722.985 47.4705C722.985 47.4705 717.477 56.9265 721.425 58.8877C725.373 60.8489 737.647 67.3712 737.647 67.3712C737.647 67.3712 732.575 72.1397 731.976 74.4557C731.378 76.7717 732.702 78.8296 730.6 78.3453C728.498 77.861 728.438 79.438 727.925 81.4232C727.412 83.4084 723.994 85.2366 723.994 85.2366L730.528 89.7893C730.528 89.7893 733.553 90.798 733.801 88.4012C734.049 86.0045 733.36 86.3426 735.462 86.8269C737.565 87.3112 739.336 84.2048 740.456 81.3078C741.575 78.4108 753 64.9264 753 64.9264L741.047 52.3663C737.399 48.5323 732.765 45.6509 727.594 44Z" fill="#19303C"/>
<path d="M697.992 92C697.992 92 689.205 96.2963 691.496 98.8826C693.787 101.469 691.904 102.931 689.048 105.36C686.192 107.789 680.444 136.245 680.444 136.245L673 180.324C673 180.324 674.975 218.812 676.3 220.183C677.626 221.554 679.666 219.53 677.626 221.554C675.586 223.578 673.954 221.959 675.586 223.578C677.218 225.198 677.626 229.651 677.626 229.651L688.197 228.767C688.197 228.767 695.078 199.182 690.431 186.077L708.66 138.134L714.17 184.394C714.17 184.394 717.195 221.959 719.235 223.173C721.275 224.388 722.744 224.47 720.99 226.048C719.235 227.627 719.235 225.198 719.235 227.627V231.656L729.103 233C729.103 233 733.686 196.988 731.56 180.324L738 124.388L732.983 99.1822L727.802 92.4049L697.992 92Z" fill="black"/>
<path d="M654.683 78.104C655.569 78.8194 656.672 79.1242 657.757 78.9538C658.843 78.7833 659.826 78.1509 660.497 77.1913C660.63 76.9938 660.749 76.7845 660.851 76.5654L675.406 78.734L679 70.9521L658.77 70.3657C657.916 69.9668 656.967 69.8919 656.07 70.1526C655.173 70.4133 654.38 70.995 653.813 71.8069C653.495 72.2723 653.263 72.8025 653.13 73.3673C652.997 73.932 652.966 74.5201 653.038 75.0982C653.111 75.6762 653.285 76.2328 653.552 76.7361C653.819 77.2395 654.173 77.6797 654.594 78.0317C654.623 78.0563 654.653 78.0804 654.683 78.104Z" fill="#7A565B"/>
<path d="M699.782 44.8696L694.176 44C694.176 44 687.448 47.5629 688.53 51.5953C689.613 55.6277 688.686 67.3818 688.686 67.3818C688.686 67.3818 681.801 67.0569 679.667 68.1869C677.533 69.317 676.841 71.6025 675.842 69.8284C674.844 68.0544 675.897 67.113 674.068 68.0816C672.238 69.0502 666.362 69.859 666.362 69.859L664 77.6603C664 77.6603 667.282 82.0377 669.25 80.612C671.217 79.1863 671.604 77.0622 672.603 78.8363C673.601 80.6103 673.88 83.9171 676.79 82.7599C679.7 81.6027 700.488 76.352 700.488 76.352L703 51.9929L699.782 44.8696Z" fill="#19303C"/>
<path d="M694.268 98.1793C694.268 98.1793 690.326 91.8485 691.077 90.9202C691.827 89.9918 692.767 91.5966 691.077 89.9755C689.387 88.3543 698.865 77.5356 699.488 75.9421C700.11 74.3487 690 46.5241 690 46.5241L698.611 41.3046L705.889 31L718.905 33.0956L723.484 42.4381L729.953 44.735L730.497 45.2825V62.2548C730.497 62.2548 733.376 76.7417 727.042 81.7293C727.042 81.7293 730.064 88.3543 729.25 89.5825C728.437 90.8106 743.064 106.948 731.585 108.792C719.01 110.811 692.189 97.4635 694.268 98.1793Z" fill="#19303C"/>
<path d="M714 33C721.18 33 727 27.1797 727 20C727 12.8203 721.18 7 714 7C706.82 7 701 12.8203 701 20C701 27.1797 706.82 33 714 33Z" fill="#7A565B"/>
<path d="M696.452 66.5021C696.389 65.9669 696.012 65.3053 695.749 64.8309C695.487 64.3564 694.98 63.9689 694.427 64.002C694.201 64.0274 693.985 64.1057 693.797 64.23C693.609 64.3543 693.455 64.521 693.347 64.716C693.136 65.1084 693.021 65.5429 693.011 65.9857C692.953 66.9736 693.123 67.9616 693.507 68.8776C693.892 69.7936 694.482 70.6146 695.234 71.2808C695.663 71.6546 696.179 71.9873 696.754 72C697.016 71.9939 697.273 71.9371 697.512 71.8327C697.75 71.7284 697.965 71.5788 698.143 71.3926C699.074 70.4852 699.215 68.9934 698.718 67.8058C698.22 66.6183 697.998 66.1562 696.861 65.5075" fill="black"/>
<path d="M704.668 29.5949C704.896 30.7826 702.798 36.4306 703.468 37.4486C703.468 37.4486 710.413 39.8091 713.068 39.9787C716.312 40.1841 718.921 38.8818 721.955 36.9217C722.01 35.8584 722.324 34.8235 722.872 33.9035C722.826 34.6161 722.974 35.3279 723.3 35.9662C734.663 33.2038 731.882 23.2245 725.019 18.5493L720.456 8.28019C721.825 8.72667 717.694 1.82812 713.337 6.82427C707.885 1.39055 697.323 9.2129 696 16.2004C697.273 14.6232 697.937 14.8092 698.263 15.8969C698.638 14.982 699.233 14.1689 699.997 13.526C699.617 14.2605 699.423 15.0736 699.431 15.8968C708.031 16.4192 706.43 22.097 699.381 30.6026C701.988 29.0146 700.229 35.8575 701.621 37.4932C701.689 36.3502 704.422 30.7067 704.668 29.5949Z" fill="black"/>
<path d="M715 9.92648C717.659 8.78688 720.492 8.1387 723.368 8.01149C725.65 7.91165 728.372 8.43699 729.299 10.5919C729.862 11.8991 729.562 13.4314 729.048 14.7596C728.533 16.0877 726.128 18.7689 727.513 18.7397C730.992 18.6663 732.477 21.8786 730.712 26.8702C729.688 29.7652 736.039 29.6538 739 30.0413C736.775 30.8936 734.517 31.7539 732.152 31.9583C729.788 32.1627 727.263 31.632 725.497 29.995C723.587 28.2235 722.853 25.4721 722.528 22.8421C722.203 20.2121 722.186 17.5034 721.323 15.0065C720.46 12.5095 718.476 10.1841 715.918 9.96267" fill="black"/>
<path d="M717.618 18C717.711 17.9999 717.8 17.9641 717.869 17.8992C717.938 17.8344 717.984 17.7448 717.996 17.647C718.009 17.5493 717.988 17.4499 717.938 17.3672C717.888 17.2845 717.811 17.224 717.723 17.1969C717.641 16.6932 717.632 16.1789 717.697 15.6724C717.821 13.4113 718.029 9.62698 714.599 7.07249C714.516 7.01094 714.413 6.98725 714.314 7.00657C714.214 7.02589 714.126 7.08666 714.068 7.17558C714.011 7.26449 713.988 7.37429 714.006 7.48092C714.024 7.58755 714.08 7.68231 714.163 7.74443C717.241 10.0371 717.056 13.3995 716.934 15.6242C716.864 16.8961 716.813 17.8149 717.533 17.9898C717.561 17.9966 717.59 18 717.618 18Z" fill="#19303C"/>
</g>
<defs>
<clipPath id="clip0_1_120">
<rect width="786" height="142" fill="white"/>
</clipPath>
</defs>
</svg>
