<svg width="175" height="48" viewBox="0 0 175 48" fill="none" xmlns="http://www.w3.org/2000/svg">
<g filter="url(#filter0_d_1114_1218)">
<path d="M8.88 49C8.144 49 7.264 48.728 6.24 48.184C5.248 47.64 4.368 47 3.6 46.264C2.864 45.528 2.496 44.92 2.496 44.44C2.496 43.608 3.28 39.368 4.848 31.72C5.04 30.824 5.344 29.304 5.76 27.16C6.208 24.984 6.512 23.416 6.672 22.456L4.896 22.744C3.904 21.816 3.408 20.648 3.408 19.24C3.408 18.248 3.68 17.224 4.224 16.168C6.816 15.496 9.44 15.16 12.096 15.16C14.912 15.16 17.52 15.528 19.92 16.264C22.352 17 24.32 18.136 25.824 19.672C27.328 21.176 28.08 23.064 28.08 25.336C28.08 27.352 27.408 29.272 26.064 31.096C24.752 32.888 22.832 34.376 20.304 35.56C17.776 36.744 14.8 37.464 11.376 37.72C11.152 39.256 10.976 40.648 10.848 41.896C10.56 44.328 10.288 46.12 10.032 47.272C9.776 48.424 9.392 49 8.88 49ZM12.096 31.768C14.88 31.224 17.024 30.392 18.528 29.272C20.064 28.12 20.832 26.84 20.832 25.432C20.832 24.472 20.352 23.672 19.392 23.032C18.464 22.36 17.2 22.024 15.6 22.024C15.024 22.024 14.4 22.072 13.728 22.168L12.96 26.68C12.512 29.208 12.224 30.904 12.096 31.768ZM35.7615 49C34.8335 49 33.7935 48.728 32.6415 48.184C31.5215 47.608 30.5615 46.952 29.7615 46.216C28.9615 45.448 28.5615 44.792 28.5615 44.248C28.5615 43.704 28.7855 42.36 29.2335 40.216C29.6815 38.072 29.9695 36.696 30.0975 36.088C31.0575 31.672 31.6975 28.616 32.0175 26.92L32.4975 24.232C33.1695 20.52 33.7775 17.528 34.3215 15.256C34.8975 12.984 35.4735 11.848 36.0495 11.848C36.7215 11.848 37.6015 12.136 38.6895 12.712C39.8095 13.288 40.7855 13.96 41.6175 14.728C42.4495 15.496 42.8655 16.168 42.8655 16.744C42.8655 17.512 42.7215 18.264 42.4335 19C42.1775 19.704 41.7775 20.632 41.2335 21.784C40.7215 22.776 40.3695 23.544 40.1775 24.088C39.5695 25.976 38.9135 28.6 38.2095 31.96C37.5375 35.32 36.9775 38.568 36.5295 41.704C37.5535 41.192 38.3535 40.76 38.9295 40.408C39.5055 40.024 40.1775 39.512 40.9455 38.872C42.3535 39.352 43.3935 40.024 44.0655 40.888C44.7695 41.72 45.1215 42.68 45.1215 43.768C45.1215 44.536 44.5775 45.336 43.4895 46.168C42.4015 46.968 41.1055 47.64 39.6015 48.184C38.0975 48.728 36.8175 49 35.7615 49ZM69.8303 41.944C71.7823 40.984 73.4303 39.96 74.7743 38.872C76.1823 39.352 77.2222 40.024 77.8943 40.888C78.5983 41.72 78.9503 42.68 78.9503 43.768C78.9503 44.536 78.4063 45.336 77.3182 46.168C76.2303 46.968 74.9343 47.64 73.4303 48.184C71.9263 48.728 70.6463 49 69.5903 49C68.8543 49 68.0063 48.728 67.0463 48.184C66.1183 47.64 65.3023 47 64.5983 46.264C63.9263 45.528 63.5903 44.952 63.5903 44.536C63.5903 44.216 63.7183 43.784 63.9742 43.24C64.2622 42.696 64.5663 42.136 64.8863 41.56C65.2063 40.984 65.4143 40.6 65.5103 40.408L64.3102 39.736C62.6142 42.52 60.9822 44.76 59.4142 46.456C57.8783 48.152 56.3583 49 54.8542 49C53.8302 49 52.7422 48.552 51.5902 47.656C50.4702 46.76 49.5102 45.672 48.7102 44.392C47.9422 43.112 47.5582 41.976 47.5582 40.984C47.5582 38.136 48.1502 35.224 49.3342 32.248C50.5182 29.272 52.1662 26.808 54.2783 24.856C56.4223 22.904 58.8383 21.928 61.5262 21.928C62.4862 21.928 63.4623 22.36 64.4543 23.224C65.4463 24.088 66.0863 24.968 66.3743 25.864C66.5343 25.16 66.7583 24.552 67.0463 24.04C67.3663 23.496 67.7023 23.224 68.0543 23.224C68.8863 23.224 69.7983 23.528 70.7903 24.136C71.8143 24.712 72.6783 25.4 73.3823 26.2C74.0863 26.968 74.4382 27.576 74.4382 28.024C74.4062 28.632 74.1503 29.64 73.6703 31.048C73.2223 32.456 72.4863 34.6 71.4623 37.48C70.8543 39.048 70.3103 40.536 69.8303 41.944ZM55.0942 42.328C57.6862 40.728 59.9422 38.76 61.8622 36.424C63.7822 34.056 65.0943 31.448 65.7983 28.6C64.9343 28.216 64.1183 28.024 63.3503 28.024C61.8463 28.024 60.5022 28.696 59.3182 30.04C58.1343 31.384 57.1903 33.144 56.4862 35.32C55.7822 37.496 55.3182 39.832 55.0942 42.328ZM89.2316 42.664C92.2396 42.536 95.0236 40.984 97.5836 38.008C99.1516 38.296 100.4 38.888 101.328 39.784C102.288 40.68 102.768 41.816 102.768 43.192C102.768 44.184 102.192 45.128 101.04 46.024C99.9196 46.92 98.5116 47.64 96.8156 48.184C95.1196 48.728 93.4876 49 91.9196 49C90.3836 49 88.7836 48.504 87.1196 47.512C85.4556 46.488 84.0796 45.24 82.9916 43.768C81.9036 42.296 81.3596 40.904 81.3596 39.592C81.3596 37.064 81.9356 34.424 83.0876 31.672C84.2716 28.888 85.9036 26.568 87.9836 24.712C90.0636 22.856 92.3996 21.928 94.9916 21.928C96.5916 21.928 98.1116 22.216 99.5516 22.792C100.992 23.368 102.144 24.136 103.008 25.096C103.872 26.056 104.304 27.048 104.304 28.072C104.304 29.064 103.872 29.96 103.008 30.76C102.144 31.528 101.008 31.912 99.5996 31.912C99.1516 31.912 98.6876 31.864 98.2076 31.768C97.4076 29.816 96.5276 28.44 95.5676 27.64C93.4556 29.016 91.8556 30.936 90.7676 33.4C89.6796 35.864 89.1356 38.376 89.1356 40.936C89.1356 41.32 89.1676 41.896 89.2316 42.664ZM116.334 20.536C115.726 20.536 114.99 20.296 114.126 19.816C113.294 19.304 112.574 18.712 111.966 18.04C111.358 17.336 111.054 16.712 111.054 16.168C111.054 15.304 111.278 14.44 111.726 13.576C112.174 12.712 112.734 12.088 113.406 11.704C113.726 11.544 114.238 11.464 114.942 11.464C116.094 11.464 117.246 11.72 118.398 12.232C119.582 12.744 120.302 13.384 120.558 14.152C120.622 14.312 120.654 14.552 120.654 14.872C120.654 15.608 120.43 16.424 119.982 17.32C119.534 18.216 118.974 18.984 118.302 19.624C117.63 20.232 116.974 20.536 116.334 20.536ZM113.07 49C112.238 49 111.294 48.728 110.238 48.184C109.214 47.608 108.318 46.952 107.55 46.216C106.814 45.448 106.446 44.808 106.446 44.296C106.446 43.72 106.654 42.872 107.07 41.752C107.486 40.632 108.11 39.096 108.942 37.144C109.582 35.64 110.062 34.472 110.382 33.64C110.702 32.776 110.862 32.168 110.862 31.816C110.862 31.56 110.702 31.288 110.382 31C110.094 30.68 109.646 30.296 109.038 29.848C108.334 29.304 107.806 28.872 107.454 28.552C107.134 28.232 106.974 27.896 106.974 27.544C106.974 26.872 107.278 26.088 107.886 25.192C108.526 24.296 109.262 23.528 110.094 22.888C110.958 22.248 111.694 21.928 112.302 21.928C113.038 21.928 113.838 22.248 114.702 22.888C115.598 23.528 116.35 24.296 116.958 25.192C117.598 26.056 117.918 26.76 117.918 27.304C117.918 28.712 117.55 30.728 116.814 33.352C116.11 35.944 115.198 38.744 114.078 41.752C114.846 41.4 115.518 41.032 116.094 40.648C116.67 40.264 117.47 39.672 118.494 38.872C119.934 39.352 120.99 40.04 121.662 40.936C122.334 41.8 122.67 42.744 122.67 43.768C122.67 44.6 122.126 45.416 121.038 46.216C119.982 47.016 118.686 47.688 117.15 48.232C115.614 48.744 114.254 49 113.07 49ZM135.762 21.88C138.034 22.136 140.098 22.824 141.954 23.944C143.842 25.032 145.314 26.344 146.37 27.88C147.426 29.416 147.954 30.952 147.954 32.488C147.954 34.792 147.362 37.24 146.178 39.832C144.994 42.424 143.346 44.6 141.234 46.36C139.122 48.12 136.77 49 134.178 49C132.898 49 131.538 48.536 130.098 47.608C128.658 46.648 127.442 45.496 126.45 44.152C125.49 42.776 125.01 41.56 125.01 40.504C125.01 38.552 125.25 36.552 125.73 34.504C126.21 32.424 126.946 30.408 127.938 28.456C128.866 27.944 129.794 27.688 130.722 27.688C131.138 27.688 131.522 27.736 131.874 27.832C131.746 27.448 131.682 27 131.682 26.488C131.682 25.464 132.034 24.536 132.738 23.704C133.474 22.872 134.482 22.264 135.762 21.88ZM132.45 43.528C135.106 42.632 137.17 41.096 138.642 38.92C140.114 36.744 141.09 34.152 141.57 31.144C140.13 30.12 138.178 29.608 135.714 29.608C135.106 29.608 134.642 29.624 134.322 29.656C134.674 30.296 134.85 31.016 134.85 31.816C134.018 33.128 133.378 34.584 132.93 36.184C132.482 37.752 132.258 39.336 132.258 40.936C132.258 41.896 132.322 42.76 132.45 43.528Z" fill="#26283B"/>
</g>
<path d="M164.752 0C164.953 0.452812 165.371 1.035 165.966 1.62891C166.81 2.47219 167.963 3.36047 169.177 4.13156C170.391 4.905 171.661 5.56594 172.721 5.96906C173.25 6.16594 173.733 6.30187 174.113 6.35812C174.272 6.38156 174.413 6.39094 174.53 6.38625C173.489 4.80187 171.886 3.27562 170.1 2.11453C168.352 0.977812 166.439 0.197344 164.752 0ZM163.903 0.193594C161.949 1.51406 161.278 3.77062 160.833 6.00656C161.213 6.8175 162.493 8.17687 164.175 9.38625C165.891 10.6191 168.014 11.7347 169.964 12.2128C171.582 11.8003 172.594 10.9753 173.307 9.95812C173.888 9.13312 174.263 8.17687 174.558 7.23469C174.375 7.23937 174.183 7.22062 173.986 7.1925C173.517 7.12687 172.993 6.97219 172.421 6.75656C171.361 6.35344 170.161 5.73469 168.985 5.00812L166.524 7.26281L167.667 4.13156C166.81 3.51984 166.018 2.87156 165.371 2.22516C164.682 1.53937 164.138 0.870469 163.903 0.193594ZM161.405 8.16281L155.04 15.7331L155.03 15.7472C155.006 15.7706 155 15.7753 155 15.8269C155 15.8784 155.013 15.9769 155.068 16.1081C155.178 16.3706 155.439 16.7456 155.811 17.1487C155.838 17.1769 155.866 17.2097 155.894 17.2378L157.16 16.1644L156.254 17.5987C156.981 18.3019 157.95 19.0659 158.972 19.7409C159.961 20.3972 161.007 20.9737 161.907 21.3487L163.678 18.0066L163.111 21.7378C163.392 21.7987 163.636 21.8175 163.81 21.8034C164.091 21.7753 164.166 21.7191 164.227 21.5644L164.232 21.555L168.319 12.5878C167.925 12.4425 167.527 12.2784 167.133 12.0956L165.853 13.3425L166.407 11.7441C165.441 11.2472 164.518 10.6706 163.683 10.0706C162.807 9.4425 162.028 8.79562 161.405 8.16281Z" fill="#26283B"/>
<defs>
<filter id="filter0_d_1114_1218" x="1.49609" y="10.464" width="147.458" height="39.536" filterUnits="userSpaceOnUse" color-interpolation-filters="sRGB">
<feFlood flood-opacity="0" result="BackgroundImageFix"/>
<feColorMatrix in="SourceAlpha" type="matrix" values="0 0 0 0 0 0 0 0 0 0 0 0 0 0 0 0 0 0 127 0" result="hardAlpha"/>
<feOffset/>
<feGaussianBlur stdDeviation="0.5"/>
<feComposite in2="hardAlpha" operator="out"/>
<feColorMatrix type="matrix" values="0 0 0 0 0 0 0 0 0 0 0 0 0 0 0 0 0 0 0.25 0"/>
<feBlend mode="normal" in2="BackgroundImageFix" result="effect1_dropShadow_1114_1218"/>
<feBlend mode="normal" in="SourceGraphic" in2="effect1_dropShadow_1114_1218" result="shape"/>
</filter>
</defs>
</svg>
